<mxfile host="app.diagrams.net" agent="Mozilla/5.0 (X11; Linux x86_64; rv:132.0) Gecko/20100101 Firefox/132.0" version="26.0.2">
  <diagram name="Page-1" id="-pllxEgTgttmwnAqp5Dl">
    <mxGraphModel dx="1129" dy="2160" grid="1" gridSize="10" guides="1" tooltips="1" connect="1" arrows="1" fold="1" page="0" pageScale="1" pageWidth="850" pageHeight="1100" math="0" shadow="0">
      <root>
        <mxCell id="0" />
        <mxCell id="1" parent="0" />
        <mxCell id="TCS1ktBGP305oOnGpHJa-27" value="Versioned List" style="swimlane;whiteSpace=wrap;html=1;" parent="1" vertex="1">
          <mxGeometry x="60" y="1150" width="410" height="180" as="geometry">
            <mxRectangle x="50" y="800" width="120" height="30" as="alternateBounds" />
          </mxGeometry>
        </mxCell>
        <mxCell id="TCS1ktBGP305oOnGpHJa-28" value="Committed" style="swimlane;whiteSpace=wrap;html=1;" parent="TCS1ktBGP305oOnGpHJa-27" vertex="1">
          <mxGeometry x="10" y="30" width="250" height="140" as="geometry">
            <mxRectangle x="10" y="30" width="100" height="30" as="alternateBounds" />
          </mxGeometry>
        </mxCell>
        <mxCell id="TCS1ktBGP305oOnGpHJa-29" value="&lt;div align=&quot;center&quot;&gt;V3&lt;/div&gt;&lt;div align=&quot;center&quot;&gt;CommitTs: 8&lt;/div&gt;&lt;div align=&quot;center&quot;&gt;ViolationTs: 5&lt;br&gt;&lt;/div&gt;" style="ellipse;whiteSpace=wrap;html=1;align=center;" parent="TCS1ktBGP305oOnGpHJa-28" vertex="1">
          <mxGeometry x="10" y="40" width="100" height="80" as="geometry" />
        </mxCell>
        <mxCell id="TCS1ktBGP305oOnGpHJa-30" value="&lt;div align=&quot;center&quot;&gt;&lt;font style=&quot;font-size: 11px;&quot;&gt;V4&lt;/font&gt;&lt;/div&gt;&lt;div align=&quot;center&quot;&gt;&lt;font style=&quot;font-size: 11px;&quot;&gt;CommitTs: 9&lt;/font&gt;&lt;/div&gt;&lt;div align=&quot;center&quot;&gt;&lt;font style=&quot;font-size: 11px;&quot;&gt;ViolationTs: 6&lt;/font&gt;&lt;/div&gt;&lt;div align=&quot;center&quot;&gt;&lt;font style=&quot;font-size: 11px;&quot;&gt;Txn K (StartTs:&lt;/font&gt;&lt;/div&gt;&lt;div align=&quot;center&quot;&gt;&lt;font style=&quot;font-size: 11px;&quot;&gt;6)&lt;br&gt;&lt;/font&gt;&lt;/div&gt;" style="ellipse;whiteSpace=wrap;html=1;align=center;" parent="TCS1ktBGP305oOnGpHJa-28" vertex="1">
          <mxGeometry x="140" y="40" width="100" height="80" as="geometry" />
        </mxCell>
        <mxCell id="TCS1ktBGP305oOnGpHJa-31" value="" style="endArrow=classic;html=1;rounded=0;entryX=0;entryY=0.5;entryDx=0;entryDy=0;" parent="TCS1ktBGP305oOnGpHJa-28" source="TCS1ktBGP305oOnGpHJa-29" target="TCS1ktBGP305oOnGpHJa-30" edge="1">
          <mxGeometry width="50" height="50" relative="1" as="geometry">
            <mxPoint x="280" y="240" as="sourcePoint" />
            <mxPoint x="350" y="239.57999999999993" as="targetPoint" />
          </mxGeometry>
        </mxCell>
        <mxCell id="TCS1ktBGP305oOnGpHJa-36" value="" style="endArrow=classic;html=1;rounded=0;entryX=0;entryY=0.5;entryDx=0;entryDy=0;exitX=1;exitY=0.5;exitDx=0;exitDy=0;" parent="TCS1ktBGP305oOnGpHJa-27" source="TCS1ktBGP305oOnGpHJa-30" target="lfGEMnhsLsWsjFFBKgr2-230" edge="1">
          <mxGeometry width="50" height="50" relative="1" as="geometry">
            <mxPoint x="460" y="180" as="sourcePoint" />
            <mxPoint x="290" y="110" as="targetPoint" />
          </mxGeometry>
        </mxCell>
        <mxCell id="lfGEMnhsLsWsjFFBKgr2-229" value="Uncommitted" style="swimlane;whiteSpace=wrap;html=1;startSize=23;" parent="TCS1ktBGP305oOnGpHJa-27" vertex="1">
          <mxGeometry x="270" y="30" width="130" height="140" as="geometry">
            <mxRectangle x="290" y="40" width="110" height="30" as="alternateBounds" />
          </mxGeometry>
        </mxCell>
        <mxCell id="lfGEMnhsLsWsjFFBKgr2-230" value="V5" style="ellipse;whiteSpace=wrap;html=1;align=center;" parent="lfGEMnhsLsWsjFFBKgr2-229" vertex="1">
          <mxGeometry x="20" y="40" width="100" height="80" as="geometry" />
        </mxCell>
        <mxCell id="lfGEMnhsLsWsjFFBKgr2-165" value="T1" parent="0" />
        <mxCell id="lfGEMnhsLsWsjFFBKgr2-172" value="" style="endArrow=classic;html=1;rounded=0;exitX=0.5;exitY=0;exitDx=0;exitDy=0;entryX=0.5;entryY=1;entryDx=0;entryDy=0;" parent="lfGEMnhsLsWsjFFBKgr2-165" source="lfGEMnhsLsWsjFFBKgr2-174" target="lfGEMnhsLsWsjFFBKgr2-179" edge="1">
          <mxGeometry width="50" height="50" relative="1" as="geometry">
            <mxPoint x="360" y="160" as="sourcePoint" />
            <mxPoint x="410" y="110" as="targetPoint" />
          </mxGeometry>
        </mxCell>
        <mxCell id="lfGEMnhsLsWsjFFBKgr2-173" value="Waiters" style="swimlane;whiteSpace=wrap;html=1;" parent="lfGEMnhsLsWsjFFBKgr2-165" vertex="1">
          <mxGeometry x="200" y="100" width="120" height="200" as="geometry">
            <mxRectangle x="200" y="420" width="120" height="30" as="alternateBounds" />
          </mxGeometry>
        </mxCell>
        <mxCell id="lfGEMnhsLsWsjFFBKgr2-174" value="&lt;div&gt;Txn H&lt;br&gt;&lt;/div&gt;&lt;div&gt;StartTs: 3&lt;br&gt;&lt;/div&gt;" style="rounded=1;whiteSpace=wrap;html=1;" parent="lfGEMnhsLsWsjFFBKgr2-173" vertex="1">
          <mxGeometry x="20" y="40" width="80" height="60" as="geometry" />
        </mxCell>
        <mxCell id="lfGEMnhsLsWsjFFBKgr2-175" value="&lt;div&gt;Txn J&lt;/div&gt;&lt;div&gt;StartTs: 4&lt;/div&gt;" style="rounded=1;whiteSpace=wrap;html=1;" parent="lfGEMnhsLsWsjFFBKgr2-173" vertex="1">
          <mxGeometry x="20" y="130" width="80" height="60" as="geometry" />
        </mxCell>
        <mxCell id="lfGEMnhsLsWsjFFBKgr2-176" value="" style="endArrow=classic;html=1;rounded=0;entryX=0.5;entryY=1;entryDx=0;entryDy=0;exitX=0.5;exitY=0;exitDx=0;exitDy=0;" parent="lfGEMnhsLsWsjFFBKgr2-173" source="lfGEMnhsLsWsjFFBKgr2-175" target="lfGEMnhsLsWsjFFBKgr2-174" edge="1">
          <mxGeometry width="50" height="50" relative="1" as="geometry">
            <mxPoint x="160" y="90" as="sourcePoint" />
            <mxPoint x="210" y="40" as="targetPoint" />
          </mxGeometry>
        </mxCell>
        <mxCell id="lfGEMnhsLsWsjFFBKgr2-177" value="Versioned List" style="swimlane;whiteSpace=wrap;html=1;" parent="lfGEMnhsLsWsjFFBKgr2-165" vertex="1">
          <mxGeometry x="60" y="-90" width="680" height="180" as="geometry" />
        </mxCell>
        <mxCell id="lfGEMnhsLsWsjFFBKgr2-178" value="Committed" style="swimlane;whiteSpace=wrap;html=1;" parent="lfGEMnhsLsWsjFFBKgr2-177" vertex="1">
          <mxGeometry x="10" y="30" width="250" height="140" as="geometry">
            <mxRectangle x="30" y="40" width="100" height="30" as="alternateBounds" />
          </mxGeometry>
        </mxCell>
        <mxCell id="lfGEMnhsLsWsjFFBKgr2-179" value="&lt;div align=&quot;center&quot;&gt;&lt;font style=&quot;font-size: 11px;&quot;&gt;V2&lt;/font&gt;&lt;/div&gt;&lt;div align=&quot;center&quot;&gt;&lt;font style=&quot;font-size: 11px;&quot;&gt;CommitTs: 3&lt;/font&gt;&lt;/div&gt;&lt;div align=&quot;center&quot;&gt;&lt;div align=&quot;center&quot;&gt;&lt;font style=&quot;font-size: 11px;&quot;&gt;ViolationTs: 2&lt;/font&gt;&lt;/div&gt;&lt;/div&gt;&lt;div align=&quot;center&quot;&gt;&lt;font style=&quot;font-size: 11px;&quot;&gt;Txn A (StartTs:&lt;/font&gt;&lt;/div&gt;&lt;div align=&quot;center&quot;&gt;&lt;font style=&quot;font-size: 11px;&quot;&gt;3)&lt;/font&gt;&lt;/div&gt;" style="ellipse;whiteSpace=wrap;html=1;align=center;" parent="lfGEMnhsLsWsjFFBKgr2-178" vertex="1">
          <mxGeometry x="140" y="40" width="100" height="80" as="geometry" />
        </mxCell>
        <mxCell id="lfGEMnhsLsWsjFFBKgr2-180" value="&lt;div align=&quot;center&quot;&gt;V1&lt;/div&gt;&lt;div align=&quot;center&quot;&gt;CommitTs: 2&lt;br&gt;&lt;/div&gt;&lt;div align=&quot;center&quot;&gt;ViolationTs: 1&lt;br&gt;&lt;/div&gt;" style="ellipse;whiteSpace=wrap;html=1;align=center;" parent="lfGEMnhsLsWsjFFBKgr2-178" vertex="1">
          <mxGeometry x="10" y="40" width="100" height="80" as="geometry" />
        </mxCell>
        <mxCell id="lfGEMnhsLsWsjFFBKgr2-181" value="" style="endArrow=classic;html=1;rounded=0;exitX=1;exitY=0.5;exitDx=0;exitDy=0;entryX=0;entryY=0.5;entryDx=0;entryDy=0;" parent="lfGEMnhsLsWsjFFBKgr2-178" source="lfGEMnhsLsWsjFFBKgr2-180" target="lfGEMnhsLsWsjFFBKgr2-179" edge="1">
          <mxGeometry width="50" height="50" relative="1" as="geometry">
            <mxPoint x="60" y="160" as="sourcePoint" />
            <mxPoint x="210" y="130" as="targetPoint" />
          </mxGeometry>
        </mxCell>
        <mxCell id="lfGEMnhsLsWsjFFBKgr2-182" value="Uncommitted" style="swimlane;whiteSpace=wrap;html=1;" parent="lfGEMnhsLsWsjFFBKgr2-177" vertex="1">
          <mxGeometry x="280" y="30" width="390" height="140" as="geometry">
            <mxRectangle x="290" y="40" width="110" height="30" as="alternateBounds" />
          </mxGeometry>
        </mxCell>
        <mxCell id="lfGEMnhsLsWsjFFBKgr2-183" value="&lt;div align=&quot;center&quot;&gt;V4&lt;/div&gt;&lt;div align=&quot;center&quot;&gt;ViolationTs: 6&lt;br&gt;&lt;/div&gt;&lt;div align=&quot;center&quot;&gt;Txn C, StartTs:&lt;/div&gt;&lt;div align=&quot;center&quot;&gt;6)&lt;/div&gt;" style="ellipse;whiteSpace=wrap;html=1;align=center;" parent="lfGEMnhsLsWsjFFBKgr2-182" vertex="1">
          <mxGeometry x="150" y="40" width="100" height="80" as="geometry" />
        </mxCell>
        <mxCell id="lfGEMnhsLsWsjFFBKgr2-184" value="&lt;div align=&quot;center&quot;&gt;V3&lt;/div&gt;&lt;div align=&quot;center&quot;&gt;ViolationTs: 5&lt;br&gt;&lt;/div&gt;&lt;div&gt;Txn B (StartTs:&lt;/div&gt;&lt;div&gt;5)&lt;br&gt;&lt;/div&gt;" style="ellipse;whiteSpace=wrap;html=1;align=center;" parent="lfGEMnhsLsWsjFFBKgr2-182" vertex="1">
          <mxGeometry x="20" y="40" width="100" height="80" as="geometry" />
        </mxCell>
        <mxCell id="lfGEMnhsLsWsjFFBKgr2-185" value="" style="endArrow=classic;html=1;rounded=0;entryX=0;entryY=0.5;entryDx=0;entryDy=0;exitX=1;exitY=0.5;exitDx=0;exitDy=0;" parent="lfGEMnhsLsWsjFFBKgr2-182" source="lfGEMnhsLsWsjFFBKgr2-184" target="lfGEMnhsLsWsjFFBKgr2-183" edge="1">
          <mxGeometry width="50" height="50" relative="1" as="geometry">
            <mxPoint y="-10" as="sourcePoint" />
            <mxPoint x="50" y="-60" as="targetPoint" />
          </mxGeometry>
        </mxCell>
        <mxCell id="lfGEMnhsLsWsjFFBKgr2-186" value="V5" style="ellipse;whiteSpace=wrap;html=1;align=center;" parent="lfGEMnhsLsWsjFFBKgr2-182" vertex="1">
          <mxGeometry x="280" y="40" width="100" height="80" as="geometry" />
        </mxCell>
        <mxCell id="lfGEMnhsLsWsjFFBKgr2-187" value="" style="endArrow=classic;html=1;rounded=0;exitX=1;exitY=0.5;exitDx=0;exitDy=0;entryX=0;entryY=0.5;entryDx=0;entryDy=0;" parent="lfGEMnhsLsWsjFFBKgr2-182" source="lfGEMnhsLsWsjFFBKgr2-183" target="lfGEMnhsLsWsjFFBKgr2-186" edge="1">
          <mxGeometry width="50" height="50" relative="1" as="geometry">
            <mxPoint x="250" y="100" as="sourcePoint" />
            <mxPoint x="300" y="50" as="targetPoint" />
          </mxGeometry>
        </mxCell>
        <mxCell id="lfGEMnhsLsWsjFFBKgr2-188" value="" style="endArrow=classic;html=1;rounded=0;exitX=1;exitY=0.5;exitDx=0;exitDy=0;entryX=0;entryY=0.5;entryDx=0;entryDy=0;" parent="lfGEMnhsLsWsjFFBKgr2-177" source="lfGEMnhsLsWsjFFBKgr2-179" target="lfGEMnhsLsWsjFFBKgr2-184" edge="1">
          <mxGeometry width="50" height="50" relative="1" as="geometry">
            <mxPoint x="270" y="109.57999999999998" as="sourcePoint" />
            <mxPoint x="320" y="109.57999999999998" as="targetPoint" />
          </mxGeometry>
        </mxCell>
        <mxCell id="lfGEMnhsLsWsjFFBKgr2-189" value="" style="endArrow=classic;html=1;rounded=0;exitX=0.5;exitY=0;exitDx=0;exitDy=0;entryX=0.5;entryY=1;entryDx=0;entryDy=0;" parent="lfGEMnhsLsWsjFFBKgr2-165" source="lfGEMnhsLsWsjFFBKgr2-191" target="lfGEMnhsLsWsjFFBKgr2-183" edge="1">
          <mxGeometry width="50" height="50" relative="1" as="geometry">
            <mxPoint x="380" y="-10" as="sourcePoint" />
            <mxPoint x="640" y="120" as="targetPoint" />
          </mxGeometry>
        </mxCell>
        <mxCell id="lfGEMnhsLsWsjFFBKgr2-190" value="Waiters" style="swimlane;whiteSpace=wrap;html=1;" parent="lfGEMnhsLsWsjFFBKgr2-165" vertex="1">
          <mxGeometry x="480" y="100" width="120" height="120" as="geometry">
            <mxRectangle x="200" y="420" width="120" height="30" as="alternateBounds" />
          </mxGeometry>
        </mxCell>
        <mxCell id="lfGEMnhsLsWsjFFBKgr2-191" value="&lt;div&gt;Txn K&lt;br&gt;&lt;/div&gt;&lt;div&gt;StartTs: 6&lt;br&gt;&lt;/div&gt;" style="rounded=1;whiteSpace=wrap;html=1;" parent="lfGEMnhsLsWsjFFBKgr2-190" vertex="1">
          <mxGeometry x="20" y="40" width="80" height="60" as="geometry" />
        </mxCell>
        <mxCell id="lfGEMnhsLsWsjFFBKgr2-166" value="T2" parent="0" />
        <mxCell id="lfGEMnhsLsWsjFFBKgr2-192" value="Write-Write Conflict" style="swimlane;whiteSpace=wrap;html=1;" parent="lfGEMnhsLsWsjFFBKgr2-166" vertex="1">
          <mxGeometry x="190" y="550" width="120" height="200" as="geometry">
            <mxRectangle x="200" y="420" width="120" height="30" as="alternateBounds" />
          </mxGeometry>
        </mxCell>
        <mxCell id="lfGEMnhsLsWsjFFBKgr2-193" value="&lt;div&gt;Txn J&lt;/div&gt;&lt;div&gt;StartTs: 2&lt;br&gt;&lt;/div&gt;" style="rounded=1;whiteSpace=wrap;html=1;" parent="lfGEMnhsLsWsjFFBKgr2-192" vertex="1">
          <mxGeometry x="20" y="40" width="80" height="60" as="geometry" />
        </mxCell>
        <mxCell id="lfGEMnhsLsWsjFFBKgr2-194" value="&lt;div&gt;Txn J&lt;/div&gt;&lt;div&gt;StartTs: 3&lt;br&gt;&lt;/div&gt;" style="rounded=1;whiteSpace=wrap;html=1;" parent="lfGEMnhsLsWsjFFBKgr2-192" vertex="1">
          <mxGeometry x="20" y="130" width="80" height="60" as="geometry" />
        </mxCell>
        <mxCell id="lfGEMnhsLsWsjFFBKgr2-195" value="" style="endArrow=classic;html=1;rounded=0;entryX=0.5;entryY=1;entryDx=0;entryDy=0;exitX=0.5;exitY=0;exitDx=0;exitDy=0;" parent="lfGEMnhsLsWsjFFBKgr2-192" source="lfGEMnhsLsWsjFFBKgr2-194" target="lfGEMnhsLsWsjFFBKgr2-193" edge="1">
          <mxGeometry width="50" height="50" relative="1" as="geometry">
            <mxPoint x="160" y="90" as="sourcePoint" />
            <mxPoint x="210" y="40" as="targetPoint" />
          </mxGeometry>
        </mxCell>
        <mxCell id="lfGEMnhsLsWsjFFBKgr2-196" value="" style="rounded=1;whiteSpace=wrap;html=1;strokeWidth=1;fillWeight=2;hachureGap=8;hachureAngle=45;fillColor=#BC4242;sketch=1;strokeColor=none;fillStyle=hachure;gradientColor=none;opacity=50;rotation=0;" parent="lfGEMnhsLsWsjFFBKgr2-192" vertex="1">
          <mxGeometry x="1" y="26" width="116.2" height="172" as="geometry" />
        </mxCell>
        <mxCell id="lfGEMnhsLsWsjFFBKgr2-197" value="Versioned List" style="swimlane;whiteSpace=wrap;html=1;" parent="lfGEMnhsLsWsjFFBKgr2-166" vertex="1">
          <mxGeometry x="50" y="360" width="670" height="180" as="geometry" />
        </mxCell>
        <mxCell id="lfGEMnhsLsWsjFFBKgr2-198" value="Committed" style="swimlane;whiteSpace=wrap;html=1;" parent="lfGEMnhsLsWsjFFBKgr2-197" vertex="1">
          <mxGeometry x="10" y="30" width="380" height="140" as="geometry">
            <mxRectangle x="10" y="30" width="100" height="30" as="alternateBounds" />
          </mxGeometry>
        </mxCell>
        <mxCell id="lfGEMnhsLsWsjFFBKgr2-199" value="&lt;div align=&quot;center&quot;&gt;V2&lt;/div&gt;&lt;div align=&quot;center&quot;&gt;CommitTs: 3&lt;br&gt;&lt;/div&gt;&lt;div align=&quot;center&quot;&gt;ViolationTs: 2&lt;br&gt;&lt;/div&gt;" style="ellipse;whiteSpace=wrap;html=1;align=center;" parent="lfGEMnhsLsWsjFFBKgr2-198" vertex="1">
          <mxGeometry x="140" y="40" width="100" height="80" as="geometry" />
        </mxCell>
        <mxCell id="lfGEMnhsLsWsjFFBKgr2-200" value="&lt;div align=&quot;center&quot;&gt;V1&lt;/div&gt;&lt;div align=&quot;center&quot;&gt;CommitTs: 2&lt;/div&gt;&lt;div align=&quot;center&quot;&gt;ViolationTs: 1&lt;br&gt;&lt;/div&gt;" style="ellipse;whiteSpace=wrap;html=1;align=center;" parent="lfGEMnhsLsWsjFFBKgr2-198" vertex="1">
          <mxGeometry x="10" y="40" width="100" height="80" as="geometry" />
        </mxCell>
        <mxCell id="lfGEMnhsLsWsjFFBKgr2-201" value="" style="endArrow=classic;html=1;rounded=0;exitX=1;exitY=0.5;exitDx=0;exitDy=0;entryX=0;entryY=0.5;entryDx=0;entryDy=0;" parent="lfGEMnhsLsWsjFFBKgr2-198" source="lfGEMnhsLsWsjFFBKgr2-200" target="lfGEMnhsLsWsjFFBKgr2-199" edge="1">
          <mxGeometry width="50" height="50" relative="1" as="geometry">
            <mxPoint x="60" y="160" as="sourcePoint" />
            <mxPoint x="210" y="130" as="targetPoint" />
          </mxGeometry>
        </mxCell>
        <mxCell id="lfGEMnhsLsWsjFFBKgr2-202" value="&lt;div align=&quot;center&quot;&gt;&lt;font style=&quot;font-size: 11px;&quot;&gt;V3&lt;/font&gt;&lt;/div&gt;&lt;div align=&quot;center&quot;&gt;&lt;font style=&quot;font-size: 11px;&quot;&gt;CommitTs: 8&lt;br&gt;&lt;/font&gt;&lt;/div&gt;&lt;div&gt;&lt;font style=&quot;font-size: 11px;&quot;&gt;ViolationTs: 5&lt;/font&gt;&lt;/div&gt;&lt;div&gt;&lt;font style=&quot;font-size: 11px;&quot;&gt;Txn B (StartTs:&lt;/font&gt;&lt;/div&gt;&lt;div&gt;&lt;font style=&quot;font-size: 11px;&quot;&gt;5)&lt;br&gt;&lt;/font&gt;&lt;/div&gt;" style="ellipse;whiteSpace=wrap;html=1;align=center;" parent="lfGEMnhsLsWsjFFBKgr2-198" vertex="1">
          <mxGeometry x="270" y="40" width="100" height="80" as="geometry" />
        </mxCell>
        <mxCell id="lfGEMnhsLsWsjFFBKgr2-203" value="" style="endArrow=classic;html=1;rounded=0;exitX=1;exitY=0.5;exitDx=0;exitDy=0;entryX=0;entryY=0.5;entryDx=0;entryDy=0;" parent="lfGEMnhsLsWsjFFBKgr2-198" source="lfGEMnhsLsWsjFFBKgr2-199" target="lfGEMnhsLsWsjFFBKgr2-202" edge="1">
          <mxGeometry width="50" height="50" relative="1" as="geometry">
            <mxPoint x="260" y="79.57999999999998" as="sourcePoint" />
            <mxPoint x="310" y="79.57999999999998" as="targetPoint" />
          </mxGeometry>
        </mxCell>
        <mxCell id="lfGEMnhsLsWsjFFBKgr2-204" value="Uncommitted" style="swimlane;whiteSpace=wrap;html=1;" parent="lfGEMnhsLsWsjFFBKgr2-197" vertex="1">
          <mxGeometry x="400" y="30" width="260" height="140" as="geometry">
            <mxRectangle x="290" y="40" width="110" height="30" as="alternateBounds" />
          </mxGeometry>
        </mxCell>
        <mxCell id="lfGEMnhsLsWsjFFBKgr2-205" value="&lt;div align=&quot;center&quot;&gt;V4&lt;/div&gt;&lt;div align=&quot;center&quot;&gt;ViolationTs: 6&lt;br&gt;&lt;/div&gt;&lt;div align=&quot;center&quot;&gt;Txn C (StartTs:&lt;/div&gt;&lt;div align=&quot;center&quot;&gt;6)&lt;br&gt;&lt;/div&gt;" style="ellipse;whiteSpace=wrap;html=1;align=center;" parent="lfGEMnhsLsWsjFFBKgr2-204" vertex="1">
          <mxGeometry x="20" y="40" width="100" height="80" as="geometry" />
        </mxCell>
        <mxCell id="lfGEMnhsLsWsjFFBKgr2-206" value="&lt;div&gt;V5&lt;/div&gt;&lt;div&gt;ViolationTs: 7&lt;br&gt;&lt;/div&gt;" style="ellipse;whiteSpace=wrap;html=1;align=center;" parent="lfGEMnhsLsWsjFFBKgr2-204" vertex="1">
          <mxGeometry x="150" y="40" width="100" height="80" as="geometry" />
        </mxCell>
        <mxCell id="lfGEMnhsLsWsjFFBKgr2-207" value="" style="endArrow=classic;html=1;rounded=0;exitX=1;exitY=0.5;exitDx=0;exitDy=0;entryX=0;entryY=0.5;entryDx=0;entryDy=0;" parent="lfGEMnhsLsWsjFFBKgr2-204" source="lfGEMnhsLsWsjFFBKgr2-205" target="lfGEMnhsLsWsjFFBKgr2-206" edge="1">
          <mxGeometry width="50" height="50" relative="1" as="geometry">
            <mxPoint x="120" y="100" as="sourcePoint" />
            <mxPoint x="170" y="50" as="targetPoint" />
          </mxGeometry>
        </mxCell>
        <mxCell id="lfGEMnhsLsWsjFFBKgr2-208" value="" style="endArrow=classic;html=1;rounded=0;entryX=0;entryY=0.5;entryDx=0;entryDy=0;exitX=1;exitY=0.5;exitDx=0;exitDy=0;" parent="lfGEMnhsLsWsjFFBKgr2-197" source="lfGEMnhsLsWsjFFBKgr2-202" target="lfGEMnhsLsWsjFFBKgr2-205" edge="1">
          <mxGeometry width="50" height="50" relative="1" as="geometry">
            <mxPoint x="420" y="20" as="sourcePoint" />
            <mxPoint x="470" y="-30" as="targetPoint" />
          </mxGeometry>
        </mxCell>
        <mxCell id="lfGEMnhsLsWsjFFBKgr2-209" value="" style="endArrow=classic;html=1;rounded=0;exitX=0.5;exitY=0;exitDx=0;exitDy=0;entryX=0.5;entryY=1;entryDx=0;entryDy=0;" parent="lfGEMnhsLsWsjFFBKgr2-166" source="lfGEMnhsLsWsjFFBKgr2-211" target="lfGEMnhsLsWsjFFBKgr2-205" edge="1">
          <mxGeometry width="50" height="50" relative="1" as="geometry">
            <mxPoint x="370" y="440" as="sourcePoint" />
            <mxPoint x="630" y="570" as="targetPoint" />
          </mxGeometry>
        </mxCell>
        <mxCell id="lfGEMnhsLsWsjFFBKgr2-210" value="Waiters" style="swimlane;whiteSpace=wrap;html=1;" parent="lfGEMnhsLsWsjFFBKgr2-166" vertex="1">
          <mxGeometry x="460" y="550" width="120" height="120" as="geometry">
            <mxRectangle x="200" y="420" width="120" height="30" as="alternateBounds" />
          </mxGeometry>
        </mxCell>
        <mxCell id="lfGEMnhsLsWsjFFBKgr2-211" value="&lt;div&gt;Txn K&lt;br&gt;&lt;/div&gt;&lt;div&gt;StartTs: 6&lt;br&gt;&lt;/div&gt;" style="rounded=1;whiteSpace=wrap;html=1;" parent="lfGEMnhsLsWsjFFBKgr2-210" vertex="1">
          <mxGeometry x="20" y="40" width="80" height="60" as="geometry" />
        </mxCell>
        <mxCell id="lfGEMnhsLsWsjFFBKgr2-167" value="T3" parent="0" />
        <mxCell id="lfGEMnhsLsWsjFFBKgr2-212" value="Versioned List" style="swimlane;whiteSpace=wrap;html=1;" parent="lfGEMnhsLsWsjFFBKgr2-167" vertex="1">
          <mxGeometry x="50" y="800" width="540" height="180" as="geometry">
            <mxRectangle x="50" y="800" width="120" height="30" as="alternateBounds" />
          </mxGeometry>
        </mxCell>
        <mxCell id="lfGEMnhsLsWsjFFBKgr2-213" value="Committed" style="swimlane;whiteSpace=wrap;html=1;" parent="lfGEMnhsLsWsjFFBKgr2-212" vertex="1">
          <mxGeometry x="10" y="30" width="250" height="140" as="geometry">
            <mxRectangle x="10" y="30" width="100" height="30" as="alternateBounds" />
          </mxGeometry>
        </mxCell>
        <mxCell id="lfGEMnhsLsWsjFFBKgr2-214" value="&lt;div align=&quot;center&quot;&gt;V3&lt;/div&gt;&lt;div align=&quot;center&quot;&gt;CommitTs: 8&lt;/div&gt;&lt;div align=&quot;center&quot;&gt;ViolationTs: 5&lt;br&gt;&lt;/div&gt;" style="ellipse;whiteSpace=wrap;html=1;align=center;" parent="lfGEMnhsLsWsjFFBKgr2-213" vertex="1">
          <mxGeometry x="10" y="40" width="100" height="80" as="geometry" />
        </mxCell>
        <mxCell id="lfGEMnhsLsWsjFFBKgr2-215" value="&lt;div align=&quot;center&quot;&gt;&lt;font style=&quot;font-size: 11px;&quot;&gt;V4&lt;/font&gt;&lt;/div&gt;&lt;div align=&quot;center&quot;&gt;&lt;font style=&quot;font-size: 11px;&quot;&gt;CommitTs: 9&lt;br&gt;&lt;/font&gt;&lt;/div&gt;&lt;div&gt;&lt;font style=&quot;font-size: 11px;&quot;&gt;ViolationTs: 6&lt;br&gt;&lt;/font&gt;&lt;/div&gt;&lt;div&gt;&lt;font style=&quot;font-size: 11px;&quot;&gt;Txn C (StartTs:&lt;/font&gt;&lt;/div&gt;&lt;div&gt;&lt;font style=&quot;font-size: 11px;&quot;&gt;6)&lt;br&gt;&lt;/font&gt;&lt;/div&gt;" style="ellipse;whiteSpace=wrap;html=1;align=center;" parent="lfGEMnhsLsWsjFFBKgr2-213" vertex="1">
          <mxGeometry x="140" y="40" width="100" height="80" as="geometry" />
        </mxCell>
        <mxCell id="lfGEMnhsLsWsjFFBKgr2-216" value="" style="endArrow=classic;html=1;rounded=0;entryX=0;entryY=0.5;entryDx=0;entryDy=0;" parent="lfGEMnhsLsWsjFFBKgr2-213" source="lfGEMnhsLsWsjFFBKgr2-214" target="lfGEMnhsLsWsjFFBKgr2-215" edge="1">
          <mxGeometry width="50" height="50" relative="1" as="geometry">
            <mxPoint x="280" y="240" as="sourcePoint" />
            <mxPoint x="350" y="239.57999999999993" as="targetPoint" />
          </mxGeometry>
        </mxCell>
        <mxCell id="lfGEMnhsLsWsjFFBKgr2-217" value="Uncommitted" style="swimlane;whiteSpace=wrap;html=1;" parent="lfGEMnhsLsWsjFFBKgr2-212" vertex="1">
          <mxGeometry x="270" y="30" width="260" height="140" as="geometry">
            <mxRectangle x="290" y="40" width="110" height="30" as="alternateBounds" />
          </mxGeometry>
        </mxCell>
        <mxCell id="lfGEMnhsLsWsjFFBKgr2-218" value="&lt;div&gt;V5&lt;/div&gt;&lt;div&gt;ViolationTs: 7&lt;br&gt;&lt;/div&gt;&lt;div&gt;Txn D (StartTs:&lt;/div&gt;&lt;div&gt;7)&lt;br&gt;&lt;/div&gt;" style="ellipse;whiteSpace=wrap;html=1;align=center;" parent="lfGEMnhsLsWsjFFBKgr2-217" vertex="1">
          <mxGeometry x="20" y="40" width="100" height="80" as="geometry" />
        </mxCell>
        <mxCell id="lfGEMnhsLsWsjFFBKgr2-219" value="&lt;div&gt;V6&lt;/div&gt;" style="ellipse;whiteSpace=wrap;html=1;align=center;" parent="lfGEMnhsLsWsjFFBKgr2-217" vertex="1">
          <mxGeometry x="150" y="40" width="100" height="80" as="geometry" />
        </mxCell>
        <mxCell id="lfGEMnhsLsWsjFFBKgr2-220" value="" style="endArrow=classic;html=1;rounded=0;exitX=1;exitY=0.5;exitDx=0;exitDy=0;entryX=0;entryY=0.5;entryDx=0;entryDy=0;" parent="lfGEMnhsLsWsjFFBKgr2-217" source="lfGEMnhsLsWsjFFBKgr2-218" target="lfGEMnhsLsWsjFFBKgr2-219" edge="1">
          <mxGeometry width="50" height="50" relative="1" as="geometry">
            <mxPoint x="130" y="90" as="sourcePoint" />
            <mxPoint x="30" y="90" as="targetPoint" />
          </mxGeometry>
        </mxCell>
        <mxCell id="lfGEMnhsLsWsjFFBKgr2-221" value="" style="endArrow=classic;html=1;rounded=0;entryX=0;entryY=0.5;entryDx=0;entryDy=0;exitX=1;exitY=0.5;exitDx=0;exitDy=0;" parent="lfGEMnhsLsWsjFFBKgr2-212" source="lfGEMnhsLsWsjFFBKgr2-215" target="lfGEMnhsLsWsjFFBKgr2-218" edge="1">
          <mxGeometry width="50" height="50" relative="1" as="geometry">
            <mxPoint x="460" y="180" as="sourcePoint" />
            <mxPoint x="460" y="270" as="targetPoint" />
          </mxGeometry>
        </mxCell>
        <mxCell id="lfGEMnhsLsWsjFFBKgr2-222" value="" style="endArrow=classic;html=1;rounded=0;exitX=0.5;exitY=0;exitDx=0;exitDy=0;entryX=0.5;entryY=1;entryDx=0;entryDy=0;" parent="lfGEMnhsLsWsjFFBKgr2-167" source="lfGEMnhsLsWsjFFBKgr2-224" target="lfGEMnhsLsWsjFFBKgr2-215" edge="1">
          <mxGeometry width="50" height="50" relative="1" as="geometry">
            <mxPoint x="125" y="870" as="sourcePoint" />
            <mxPoint x="385" y="1000" as="targetPoint" />
          </mxGeometry>
        </mxCell>
        <mxCell id="lfGEMnhsLsWsjFFBKgr2-223" value="Waiters" style="swimlane;whiteSpace=wrap;html=1;" parent="lfGEMnhsLsWsjFFBKgr2-167" vertex="1">
          <mxGeometry x="190" y="990" width="120" height="120" as="geometry">
            <mxRectangle x="200" y="420" width="120" height="30" as="alternateBounds" />
          </mxGeometry>
        </mxCell>
        <mxCell id="lfGEMnhsLsWsjFFBKgr2-224" value="&lt;div&gt;Txn K&lt;br&gt;&lt;/div&gt;&lt;div&gt;StartTs: 6&lt;br&gt;&lt;/div&gt;" style="rounded=1;whiteSpace=wrap;html=1;" parent="lfGEMnhsLsWsjFFBKgr2-223" vertex="1">
          <mxGeometry x="20" y="40" width="80" height="60" as="geometry" />
        </mxCell>
        <mxCell id="lfGEMnhsLsWsjFFBKgr2-168" value="T4" parent="0" />
        <mxCell id="lfGEMnhsLsWsjFFBKgr2-231" value="Aborted" style="swimlane;whiteSpace=wrap;html=1;" parent="lfGEMnhsLsWsjFFBKgr2-168" vertex="1">
          <mxGeometry x="330" y="1340" width="250" height="140" as="geometry">
            <mxRectangle x="290" y="40" width="110" height="30" as="alternateBounds" />
          </mxGeometry>
        </mxCell>
        <mxCell id="lfGEMnhsLsWsjFFBKgr2-233" value="&lt;div&gt;V5&lt;/div&gt;&lt;div&gt;ViolationTs: 7&lt;br&gt;&lt;/div&gt;&lt;div&gt;Txn D (StartTs:&lt;/div&gt;&lt;div&gt;7)&lt;br&gt;&lt;/div&gt;" style="ellipse;whiteSpace=wrap;html=1;align=center;" parent="lfGEMnhsLsWsjFFBKgr2-231" vertex="1">
          <mxGeometry x="10" y="40" width="100" height="80" as="geometry" />
        </mxCell>
        <mxCell id="lfGEMnhsLsWsjFFBKgr2-235" value="&lt;div&gt;V6&lt;/div&gt;" style="ellipse;whiteSpace=wrap;html=1;align=center;" parent="lfGEMnhsLsWsjFFBKgr2-231" vertex="1">
          <mxGeometry x="140" y="40" width="100" height="80" as="geometry" />
        </mxCell>
        <mxCell id="lfGEMnhsLsWsjFFBKgr2-236" value="" style="endArrow=classic;html=1;rounded=0;exitX=1;exitY=0.5;exitDx=0;exitDy=0;entryX=0;entryY=0.5;entryDx=0;entryDy=0;" parent="lfGEMnhsLsWsjFFBKgr2-231" source="lfGEMnhsLsWsjFFBKgr2-233" target="lfGEMnhsLsWsjFFBKgr2-235" edge="1">
          <mxGeometry width="50" height="50" relative="1" as="geometry">
            <mxPoint x="120" y="90" as="sourcePoint" />
            <mxPoint x="20" y="90" as="targetPoint" />
          </mxGeometry>
        </mxCell>
        <mxCell id="kRb6PwWx2qze3iZ3p1lN-1" value="" style="rounded=1;whiteSpace=wrap;html=1;strokeWidth=1;fillWeight=2;hachureGap=8;hachureAngle=45;fillColor=#BC4242;sketch=1;strokeColor=none;fillStyle=hachure;gradientColor=none;opacity=50;rotation=0;" parent="lfGEMnhsLsWsjFFBKgr2-231" vertex="1">
          <mxGeometry y="28" width="244" height="111" as="geometry" />
        </mxCell>
        <mxCell id="2Rrp769z8owgkOt1bYx3-27" value="Versioned List" style="swimlane;whiteSpace=wrap;html=1;" parent="lfGEMnhsLsWsjFFBKgr2-168" vertex="1">
          <mxGeometry x="50" y="1150" width="420" height="180" as="geometry" />
        </mxCell>
        <mxCell id="2Rrp769z8owgkOt1bYx3-28" value="Committed" style="swimlane;whiteSpace=wrap;html=1;" parent="2Rrp769z8owgkOt1bYx3-27" vertex="1">
          <mxGeometry x="10" y="30" width="250" height="140" as="geometry">
            <mxRectangle x="30" y="40" width="100" height="30" as="alternateBounds" />
          </mxGeometry>
        </mxCell>
        <mxCell id="2Rrp769z8owgkOt1bYx3-29" value="&lt;div align=&quot;center&quot;&gt;&lt;font style=&quot;font-size: 11px;&quot;&gt;V4&lt;/font&gt;&lt;/div&gt;&lt;div align=&quot;center&quot;&gt;&lt;font style=&quot;font-size: 11px;&quot;&gt;CommitTs: 9&lt;br&gt;&lt;/font&gt;&lt;/div&gt;&lt;div&gt;&lt;font style=&quot;font-size: 11px;&quot;&gt;ViolationTs: 6&lt;br&gt;&lt;/font&gt;&lt;/div&gt;&lt;div&gt;&lt;font style=&quot;font-size: 11px;&quot;&gt;Txn K (StartTs:&lt;/font&gt;&lt;/div&gt;&lt;font style=&quot;font-size: 11px;&quot;&gt;6)&lt;/font&gt;" style="ellipse;whiteSpace=wrap;html=1;align=center;" parent="2Rrp769z8owgkOt1bYx3-28" vertex="1">
          <mxGeometry x="140" y="40" width="100" height="80" as="geometry" />
        </mxCell>
        <mxCell id="2Rrp769z8owgkOt1bYx3-30" value="&lt;div align=&quot;center&quot;&gt;V3&lt;/div&gt;&lt;div align=&quot;center&quot;&gt;CommitTs: 8&lt;/div&gt;ViolationTs: 5" style="ellipse;whiteSpace=wrap;html=1;align=center;" parent="2Rrp769z8owgkOt1bYx3-28" vertex="1">
          <mxGeometry x="10" y="40" width="100" height="80" as="geometry" />
        </mxCell>
        <mxCell id="2Rrp769z8owgkOt1bYx3-31" value="" style="endArrow=classic;html=1;rounded=0;exitX=1;exitY=0.5;exitDx=0;exitDy=0;entryX=0;entryY=0.5;entryDx=0;entryDy=0;" parent="2Rrp769z8owgkOt1bYx3-28" source="2Rrp769z8owgkOt1bYx3-30" target="2Rrp769z8owgkOt1bYx3-29" edge="1">
          <mxGeometry width="50" height="50" relative="1" as="geometry">
            <mxPoint x="60" y="160" as="sourcePoint" />
            <mxPoint x="210" y="130" as="targetPoint" />
          </mxGeometry>
        </mxCell>
        <mxCell id="2Rrp769z8owgkOt1bYx3-24" value="Uncommitted" style="swimlane;whiteSpace=wrap;html=1;" parent="2Rrp769z8owgkOt1bYx3-27" vertex="1">
          <mxGeometry x="280" y="30" width="130" height="140" as="geometry">
            <mxRectangle x="290" y="40" width="110" height="30" as="alternateBounds" />
          </mxGeometry>
        </mxCell>
        <mxCell id="2Rrp769z8owgkOt1bYx3-25" value="&lt;div align=&quot;center&quot;&gt;V5&lt;/div&gt;" style="ellipse;whiteSpace=wrap;html=1;align=center;" parent="2Rrp769z8owgkOt1bYx3-24" vertex="1">
          <mxGeometry x="20" y="40" width="100" height="80" as="geometry" />
        </mxCell>
        <mxCell id="2Rrp769z8owgkOt1bYx3-26" value="" style="endArrow=classic;html=1;rounded=0;exitX=1;exitY=0.5;exitDx=0;exitDy=0;entryX=0;entryY=0.5;entryDx=0;entryDy=0;" parent="2Rrp769z8owgkOt1bYx3-27" source="2Rrp769z8owgkOt1bYx3-29" target="2Rrp769z8owgkOt1bYx3-25" edge="1">
          <mxGeometry width="50" height="50" relative="1" as="geometry">
            <mxPoint x="-190" y="110" as="sourcePoint" />
            <mxPoint x="-120" y="109.57999999999993" as="targetPoint" />
          </mxGeometry>
        </mxCell>
        <mxCell id="UtOUUQE6x2YMXYn3wsZK-61" value="Atomic" parent="0" />
        <mxCell id="UtOUUQE6x2YMXYn3wsZK-62" value="Versioned List &lt;i&gt;A&lt;/i&gt;" style="swimlane;whiteSpace=wrap;html=1;" parent="UtOUUQE6x2YMXYn3wsZK-61" vertex="1">
          <mxGeometry x="1180" y="810" width="280" height="180" as="geometry">
            <mxRectangle x="50" y="800" width="120" height="30" as="alternateBounds" />
          </mxGeometry>
        </mxCell>
        <mxCell id="UtOUUQE6x2YMXYn3wsZK-63" value="Committed" style="swimlane;whiteSpace=wrap;html=1;" parent="UtOUUQE6x2YMXYn3wsZK-62" vertex="1">
          <mxGeometry x="10" y="30" width="120" height="140" as="geometry">
            <mxRectangle x="10" y="30" width="100" height="30" as="alternateBounds" />
          </mxGeometry>
        </mxCell>
        <mxCell id="UtOUUQE6x2YMXYn3wsZK-64" value="&lt;div align=&quot;center&quot;&gt;&lt;font style=&quot;font-size: 11px;&quot;&gt;V1&lt;/font&gt;&lt;/div&gt;&lt;div align=&quot;center&quot;&gt;&lt;font style=&quot;font-size: 11px;&quot;&gt;CommitTs: 2&lt;br&gt;&lt;/font&gt;&lt;/div&gt;&lt;div&gt;&lt;font style=&quot;font-size: 11px;&quot;&gt;ViolationTs: 1&lt;br&gt;&lt;/font&gt;&lt;/div&gt;&lt;div&gt;&lt;font style=&quot;font-size: 11px;&quot;&gt;Txn A (StartTs:&lt;/font&gt;&lt;/div&gt;&lt;div&gt;&lt;font style=&quot;font-size: 11px;&quot;&gt;2)&lt;/font&gt;&lt;/div&gt;" style="ellipse;whiteSpace=wrap;html=1;align=center;" parent="UtOUUQE6x2YMXYn3wsZK-63" vertex="1">
          <mxGeometry x="10" y="40" width="100" height="80" as="geometry" />
        </mxCell>
        <mxCell id="UtOUUQE6x2YMXYn3wsZK-67" value="Uncommitted" style="swimlane;whiteSpace=wrap;html=1;" parent="UtOUUQE6x2YMXYn3wsZK-62" vertex="1">
          <mxGeometry x="140" y="30" width="130" height="140" as="geometry">
            <mxRectangle x="290" y="40" width="110" height="30" as="alternateBounds" />
          </mxGeometry>
        </mxCell>
        <mxCell id="UtOUUQE6x2YMXYn3wsZK-65" value="&lt;div&gt;V2&lt;/div&gt;" style="ellipse;whiteSpace=wrap;html=1;align=center;" parent="UtOUUQE6x2YMXYn3wsZK-67" vertex="1">
          <mxGeometry x="20" y="40" width="100" height="80" as="geometry" />
        </mxCell>
        <mxCell id="UtOUUQE6x2YMXYn3wsZK-66" value="" style="endArrow=classic;html=1;rounded=0;entryX=0;entryY=0.5;entryDx=0;entryDy=0;" parent="UtOUUQE6x2YMXYn3wsZK-62" source="UtOUUQE6x2YMXYn3wsZK-64" target="UtOUUQE6x2YMXYn3wsZK-65" edge="1">
          <mxGeometry width="50" height="50" relative="1" as="geometry">
            <mxPoint x="290" y="270" as="sourcePoint" />
            <mxPoint x="360" y="269.5799999999999" as="targetPoint" />
          </mxGeometry>
        </mxCell>
        <mxCell id="UtOUUQE6x2YMXYn3wsZK-72" value="" style="endArrow=classic;html=1;rounded=0;exitX=0.5;exitY=0;exitDx=0;exitDy=0;entryX=0.5;entryY=1;entryDx=0;entryDy=0;" parent="UtOUUQE6x2YMXYn3wsZK-61" source="UtOUUQE6x2YMXYn3wsZK-74" target="UtOUUQE6x2YMXYn3wsZK-64" edge="1">
          <mxGeometry width="50" height="50" relative="1" as="geometry">
            <mxPoint x="1255" y="880" as="sourcePoint" />
            <mxPoint x="1515" y="1010" as="targetPoint" />
          </mxGeometry>
        </mxCell>
        <mxCell id="UtOUUQE6x2YMXYn3wsZK-73" value="Waiters" style="swimlane;whiteSpace=wrap;html=1;" parent="UtOUUQE6x2YMXYn3wsZK-61" vertex="1">
          <mxGeometry x="1190" y="1000" width="120" height="120" as="geometry">
            <mxRectangle x="200" y="420" width="120" height="30" as="alternateBounds" />
          </mxGeometry>
        </mxCell>
        <mxCell id="UtOUUQE6x2YMXYn3wsZK-74" value="&lt;div&gt;Txn B&lt;br&gt;&lt;/div&gt;&lt;div&gt;StartTs: 3&lt;br&gt;&lt;/div&gt;" style="rounded=1;whiteSpace=wrap;html=1;" parent="UtOUUQE6x2YMXYn3wsZK-73" vertex="1">
          <mxGeometry x="20" y="40" width="80" height="60" as="geometry" />
        </mxCell>
        <mxCell id="UtOUUQE6x2YMXYn3wsZK-86" value="Versioned List &lt;i&gt;B&lt;/i&gt;" style="swimlane;whiteSpace=wrap;html=1;" parent="UtOUUQE6x2YMXYn3wsZK-61" vertex="1">
          <mxGeometry x="1480" y="810" width="410" height="180" as="geometry">
            <mxRectangle x="50" y="800" width="120" height="30" as="alternateBounds" />
          </mxGeometry>
        </mxCell>
        <mxCell id="UtOUUQE6x2YMXYn3wsZK-87" value="Committed" style="swimlane;whiteSpace=wrap;html=1;" parent="UtOUUQE6x2YMXYn3wsZK-86" vertex="1">
          <mxGeometry x="10" y="30" width="120" height="140" as="geometry">
            <mxRectangle x="10" y="30" width="100" height="30" as="alternateBounds" />
          </mxGeometry>
        </mxCell>
        <mxCell id="UtOUUQE6x2YMXYn3wsZK-88" value="&lt;div align=&quot;center&quot;&gt;&lt;font style=&quot;font-size: 11px;&quot;&gt;V1&lt;/font&gt;&lt;/div&gt;&lt;div align=&quot;center&quot;&gt;&lt;font style=&quot;font-size: 11px;&quot;&gt;CommitTs: 2&lt;br&gt;&lt;/font&gt;&lt;/div&gt;&lt;div&gt;&lt;font style=&quot;font-size: 11px;&quot;&gt;ViolationTs: 1&lt;br&gt;&lt;/font&gt;&lt;/div&gt;&lt;div&gt;&lt;font style=&quot;font-size: 11px;&quot;&gt;Txn A (StartTs:&lt;/font&gt;&lt;/div&gt;&lt;div&gt;&lt;font style=&quot;font-size: 11px;&quot;&gt;2)&lt;/font&gt;&lt;/div&gt;" style="ellipse;whiteSpace=wrap;html=1;align=center;" parent="UtOUUQE6x2YMXYn3wsZK-87" vertex="1">
          <mxGeometry x="10" y="40" width="100" height="80" as="geometry" />
        </mxCell>
        <mxCell id="UtOUUQE6x2YMXYn3wsZK-89" value="Uncommitted" style="swimlane;whiteSpace=wrap;html=1;" parent="UtOUUQE6x2YMXYn3wsZK-86" vertex="1">
          <mxGeometry x="140" y="30" width="260" height="140" as="geometry">
            <mxRectangle x="290" y="40" width="110" height="30" as="alternateBounds" />
          </mxGeometry>
        </mxCell>
        <mxCell id="UtOUUQE6x2YMXYn3wsZK-99" value="" style="edgeStyle=orthogonalEdgeStyle;rounded=0;orthogonalLoop=1;jettySize=auto;html=1;" parent="UtOUUQE6x2YMXYn3wsZK-89" source="UtOUUQE6x2YMXYn3wsZK-90" target="UtOUUQE6x2YMXYn3wsZK-98" edge="1">
          <mxGeometry relative="1" as="geometry" />
        </mxCell>
        <mxCell id="UtOUUQE6x2YMXYn3wsZK-90" value="&lt;div&gt;V2&lt;/div&gt;&lt;div&gt;ViolationTs: 3&lt;br&gt;&lt;/div&gt;&lt;div&gt;Txn B (StartTs:&amp;nbsp;&lt;/div&gt;&lt;div&gt;3) &lt;br&gt;&lt;/div&gt;" style="ellipse;whiteSpace=wrap;html=1;align=center;" parent="UtOUUQE6x2YMXYn3wsZK-89" vertex="1">
          <mxGeometry x="20" y="40" width="100" height="80" as="geometry" />
        </mxCell>
        <mxCell id="UtOUUQE6x2YMXYn3wsZK-98" value="&lt;div&gt;V3&lt;/div&gt;" style="ellipse;whiteSpace=wrap;html=1;align=center;" parent="UtOUUQE6x2YMXYn3wsZK-89" vertex="1">
          <mxGeometry x="150" y="40" width="100" height="80" as="geometry" />
        </mxCell>
        <mxCell id="UtOUUQE6x2YMXYn3wsZK-91" value="" style="endArrow=classic;html=1;rounded=0;entryX=0;entryY=0.5;entryDx=0;entryDy=0;" parent="UtOUUQE6x2YMXYn3wsZK-86" source="UtOUUQE6x2YMXYn3wsZK-88" target="UtOUUQE6x2YMXYn3wsZK-90" edge="1">
          <mxGeometry width="50" height="50" relative="1" as="geometry">
            <mxPoint x="290" y="270" as="sourcePoint" />
            <mxPoint x="360" y="269.5799999999999" as="targetPoint" />
          </mxGeometry>
        </mxCell>
        <mxCell id="UtOUUQE6x2YMXYn3wsZK-108" value="Read" parent="0" />
        <mxCell id="UtOUUQE6x2YMXYn3wsZK-109" value="Versioned List &lt;i&gt;B&lt;/i&gt;" style="swimlane;whiteSpace=wrap;html=1;" parent="UtOUUQE6x2YMXYn3wsZK-108" vertex="1">
          <mxGeometry x="900" y="1150" width="280" height="180" as="geometry">
            <mxRectangle x="50" y="800" width="120" height="30" as="alternateBounds" />
          </mxGeometry>
        </mxCell>
        <mxCell id="UtOUUQE6x2YMXYn3wsZK-110" value="Committed" style="swimlane;whiteSpace=wrap;html=1;" parent="UtOUUQE6x2YMXYn3wsZK-109" vertex="1">
          <mxGeometry x="10" y="30" width="120" height="140" as="geometry">
            <mxRectangle x="10" y="30" width="100" height="30" as="alternateBounds" />
          </mxGeometry>
        </mxCell>
        <mxCell id="UtOUUQE6x2YMXYn3wsZK-111" value="&lt;div align=&quot;center&quot;&gt;&lt;font style=&quot;font-size: 11px;&quot;&gt;V1&lt;/font&gt;&lt;/div&gt;&lt;div align=&quot;center&quot;&gt;&lt;font style=&quot;font-size: 11px;&quot;&gt;CommitTs: 2&lt;br&gt;&lt;/font&gt;&lt;/div&gt;&lt;div&gt;&lt;font style=&quot;font-size: 11px;&quot;&gt;ViolationTs: 1&lt;br&gt;&lt;/font&gt;&lt;/div&gt;&lt;div&gt;&lt;font style=&quot;font-size: 11px;&quot;&gt;Txn A (StartTs:&lt;/font&gt;&lt;/div&gt;&lt;div&gt;&lt;font style=&quot;font-size: 11px;&quot;&gt;2)&lt;/font&gt;&lt;/div&gt;" style="ellipse;whiteSpace=wrap;html=1;align=center;" parent="UtOUUQE6x2YMXYn3wsZK-110" vertex="1">
          <mxGeometry x="10" y="40" width="100" height="80" as="geometry" />
        </mxCell>
        <mxCell id="UtOUUQE6x2YMXYn3wsZK-112" value="Uncommitted" style="swimlane;whiteSpace=wrap;html=1;" parent="UtOUUQE6x2YMXYn3wsZK-109" vertex="1">
          <mxGeometry x="140" y="30" width="130" height="140" as="geometry">
            <mxRectangle x="290" y="40" width="110" height="30" as="alternateBounds" />
          </mxGeometry>
        </mxCell>
        <mxCell id="UtOUUQE6x2YMXYn3wsZK-114" value="&lt;div&gt;V2&lt;/div&gt;&lt;div&gt;ViolationTs: 3&lt;br&gt;&lt;/div&gt;" style="ellipse;whiteSpace=wrap;html=1;align=center;" parent="UtOUUQE6x2YMXYn3wsZK-112" vertex="1">
          <mxGeometry x="20" y="40" width="100" height="80" as="geometry" />
        </mxCell>
        <mxCell id="UtOUUQE6x2YMXYn3wsZK-116" value="" style="endArrow=classic;html=1;rounded=0;entryX=0;entryY=0.5;entryDx=0;entryDy=0;" parent="UtOUUQE6x2YMXYn3wsZK-109" source="UtOUUQE6x2YMXYn3wsZK-111" target="UtOUUQE6x2YMXYn3wsZK-114" edge="1">
          <mxGeometry width="50" height="50" relative="1" as="geometry">
            <mxPoint x="290" y="270" as="sourcePoint" />
            <mxPoint x="360" y="269.5799999999999" as="targetPoint" />
          </mxGeometry>
        </mxCell>
        <mxCell id="UtOUUQE6x2YMXYn3wsZK-118" value="Transactions" style="swimlane;whiteSpace=wrap;html=1;" parent="UtOUUQE6x2YMXYn3wsZK-108" vertex="1">
          <mxGeometry x="840" y="1350" width="410" height="120" as="geometry" />
        </mxCell>
        <mxCell id="UtOUUQE6x2YMXYn3wsZK-117" value="&lt;div&gt;Txn A&lt;/div&gt;&lt;div&gt;CommitDepCounter: 0&lt;/div&gt;&lt;div&gt;ReadCommitDepSet:&lt;i&gt; {Txn B}&lt;/i&gt;&lt;/div&gt;&lt;div&gt;AbortNow: False&lt;br&gt;&lt;/div&gt;" style="rounded=1;whiteSpace=wrap;html=1;" parent="UtOUUQE6x2YMXYn3wsZK-118" vertex="1">
          <mxGeometry x="10" y="40" width="190" height="70" as="geometry" />
        </mxCell>
        <mxCell id="UtOUUQE6x2YMXYn3wsZK-119" value="&lt;div&gt;Txn B&lt;br&gt;&lt;/div&gt;&lt;div&gt;CommitDepCounter: 1&lt;br&gt;&lt;/div&gt;&lt;div&gt;ReadCommitDepSet:&lt;i&gt; {}&lt;/i&gt;&lt;/div&gt;&lt;div&gt;AbortNow: False&lt;br&gt;&lt;/div&gt;" style="rounded=1;whiteSpace=wrap;html=1;" parent="UtOUUQE6x2YMXYn3wsZK-118" vertex="1">
          <mxGeometry x="210" y="40" width="190" height="70" as="geometry" />
        </mxCell>
        <mxCell id="UtOUUQE6x2YMXYn3wsZK-120" value="" style="endArrow=block;dashed=1;html=1;dashPattern=1 3;strokeWidth=2;rounded=0;exitX=0.723;exitY=0.961;exitDx=0;exitDy=0;exitPerimeter=0;entryX=0.75;entryY=0;entryDx=0;entryDy=0;endFill=0;" parent="UtOUUQE6x2YMXYn3wsZK-108" source="UtOUUQE6x2YMXYn3wsZK-114" target="UtOUUQE6x2YMXYn3wsZK-119" edge="1">
          <mxGeometry width="50" height="50" relative="1" as="geometry">
            <mxPoint x="1100" y="1310" as="sourcePoint" />
            <mxPoint x="1150" y="1260" as="targetPoint" />
          </mxGeometry>
        </mxCell>
        <mxCell id="2Rrp769z8owgkOt1bYx3-113" value="CLV - Return Read" parent="0" />
        <mxCell id="2Rrp769z8owgkOt1bYx3-114" value="Versioned List &lt;i&gt;B&lt;/i&gt;" style="swimlane;whiteSpace=wrap;html=1;" parent="2Rrp769z8owgkOt1bYx3-113" vertex="1">
          <mxGeometry x="1360" y="1410" width="280" height="180" as="geometry">
            <mxRectangle x="50" y="800" width="120" height="30" as="alternateBounds" />
          </mxGeometry>
        </mxCell>
        <mxCell id="2Rrp769z8owgkOt1bYx3-115" value="Committed" style="swimlane;whiteSpace=wrap;html=1;" parent="2Rrp769z8owgkOt1bYx3-114" vertex="1">
          <mxGeometry x="10" y="30" width="120" height="140" as="geometry">
            <mxRectangle x="10" y="30" width="100" height="30" as="alternateBounds" />
          </mxGeometry>
        </mxCell>
        <mxCell id="2Rrp769z8owgkOt1bYx3-116" value="&lt;div align=&quot;center&quot;&gt;&lt;font style=&quot;font-size: 11px;&quot;&gt;V1&lt;/font&gt;&lt;/div&gt;&lt;div align=&quot;center&quot;&gt;&lt;font style=&quot;font-size: 11px;&quot;&gt;CommitTs: 2&lt;br&gt;&lt;/font&gt;&lt;/div&gt;&lt;div&gt;&lt;font style=&quot;font-size: 11px;&quot;&gt;ViolationTs: 1&lt;br&gt;&lt;/font&gt;&lt;/div&gt;&lt;div&gt;&lt;font style=&quot;font-size: 11px;&quot;&gt;Txn A (StartTs:&lt;/font&gt;&lt;/div&gt;&lt;div&gt;&lt;font style=&quot;font-size: 11px;&quot;&gt;2)&lt;/font&gt;&lt;/div&gt;" style="ellipse;whiteSpace=wrap;html=1;align=center;" parent="2Rrp769z8owgkOt1bYx3-115" vertex="1">
          <mxGeometry x="10" y="40" width="100" height="80" as="geometry" />
        </mxCell>
        <mxCell id="2Rrp769z8owgkOt1bYx3-117" value="Uncommitted" style="swimlane;whiteSpace=wrap;html=1;" parent="2Rrp769z8owgkOt1bYx3-114" vertex="1">
          <mxGeometry x="140" y="30" width="130" height="140" as="geometry">
            <mxRectangle x="290" y="40" width="110" height="30" as="alternateBounds" />
          </mxGeometry>
        </mxCell>
        <mxCell id="2Rrp769z8owgkOt1bYx3-118" value="&lt;div&gt;V2&lt;/div&gt;&lt;div&gt;ViolationTs: 3&lt;br&gt;&lt;/div&gt;" style="ellipse;whiteSpace=wrap;html=1;align=center;" parent="2Rrp769z8owgkOt1bYx3-117" vertex="1">
          <mxGeometry x="20" y="40" width="100" height="80" as="geometry" />
        </mxCell>
        <mxCell id="2Rrp769z8owgkOt1bYx3-119" value="" style="endArrow=classic;html=1;rounded=0;entryX=0;entryY=0.5;entryDx=0;entryDy=0;" parent="2Rrp769z8owgkOt1bYx3-114" source="2Rrp769z8owgkOt1bYx3-116" target="2Rrp769z8owgkOt1bYx3-118" edge="1">
          <mxGeometry width="50" height="50" relative="1" as="geometry">
            <mxPoint x="290" y="270" as="sourcePoint" />
            <mxPoint x="360" y="269.5799999999999" as="targetPoint" />
          </mxGeometry>
        </mxCell>
        <mxCell id="2Rrp769z8owgkOt1bYx3-120" value="Transactions" style="swimlane;whiteSpace=wrap;html=1;" parent="2Rrp769z8owgkOt1bYx3-113" vertex="1">
          <mxGeometry x="1300" y="1610" width="410" height="120" as="geometry" />
        </mxCell>
        <mxCell id="2Rrp769z8owgkOt1bYx3-121" value="&lt;div&gt;Txn A&lt;/div&gt;&lt;div&gt;CommitDepCounter: 0&lt;/div&gt;&lt;div&gt;ReadCommitDepSet:&lt;i&gt; {Txn B}&lt;/i&gt;&lt;/div&gt;&lt;div&gt;AbortNow: False&lt;br&gt;&lt;/div&gt;" style="rounded=1;whiteSpace=wrap;html=1;" parent="2Rrp769z8owgkOt1bYx3-120" vertex="1">
          <mxGeometry x="10" y="40" width="190" height="70" as="geometry" />
        </mxCell>
        <mxCell id="2Rrp769z8owgkOt1bYx3-122" value="&lt;div&gt;Txn B&lt;br&gt;&lt;/div&gt;&lt;div&gt;CommitDepCounter: 1&lt;br&gt;&lt;/div&gt;&lt;div&gt;ReadCommitDepSet:&lt;i&gt; {}&lt;/i&gt;&lt;/div&gt;&lt;div&gt;AbortNow: False&lt;br&gt;&lt;/div&gt;" style="rounded=1;whiteSpace=wrap;html=1;" parent="2Rrp769z8owgkOt1bYx3-120" vertex="1">
          <mxGeometry x="210" y="40" width="190" height="70" as="geometry" />
        </mxCell>
        <mxCell id="2Rrp769z8owgkOt1bYx3-123" value="" style="endArrow=block;dashed=1;html=1;dashPattern=1 3;strokeWidth=2;rounded=0;exitX=1;exitY=0.5;exitDx=0;exitDy=0;entryX=0;entryY=0.5;entryDx=0;entryDy=0;endFill=0;" parent="2Rrp769z8owgkOt1bYx3-113" source="2Rrp769z8owgkOt1bYx3-118" target="2Rrp769z8owgkOt1bYx3-124" edge="1">
          <mxGeometry width="50" height="50" relative="1" as="geometry">
            <mxPoint x="1560" y="1570" as="sourcePoint" />
            <mxPoint x="1610" y="1520" as="targetPoint" />
          </mxGeometry>
        </mxCell>
        <mxCell id="2Rrp769z8owgkOt1bYx3-124" value="&lt;div&gt;Query Engine&lt;/div&gt;&lt;div&gt;Txn B&lt;br&gt;&lt;/div&gt;" style="shape=hexagon;perimeter=hexagonPerimeter2;whiteSpace=wrap;html=1;fixedSize=1;" parent="2Rrp769z8owgkOt1bYx3-113" vertex="1">
          <mxGeometry x="1700" y="1500" width="120" height="80" as="geometry" />
        </mxCell>
        <mxCell id="2Rrp769z8owgkOt1bYx3-129" value="" style="curved=1;endArrow=block;html=1;rounded=0;entryX=0.75;entryY=1;entryDx=0;entryDy=0;exitX=0.5;exitY=1;exitDx=0;exitDy=0;dashed=1;dashPattern=12 12;endFill=0;strokeWidth=2;" parent="2Rrp769z8owgkOt1bYx3-113" source="2Rrp769z8owgkOt1bYx3-124" target="2Rrp769z8owgkOt1bYx3-121" edge="1">
          <mxGeometry width="50" height="50" relative="1" as="geometry">
            <mxPoint x="1870" y="1790" as="sourcePoint" />
            <mxPoint x="1470" y="1750" as="targetPoint" />
            <Array as="points">
              <mxPoint x="1760" y="1690" />
              <mxPoint x="1710" y="1750" />
              <mxPoint x="1480" y="1750" />
            </Array>
          </mxGeometry>
        </mxCell>
        <mxCell id="2Rrp769z8owgkOt1bYx3-130" value="Client" style="shape=umlActor;verticalLabelPosition=bottom;verticalAlign=top;html=1;outlineConnect=0;" parent="2Rrp769z8owgkOt1bYx3-113" vertex="1">
          <mxGeometry x="1830" y="1630" width="30" height="60" as="geometry" />
        </mxCell>
        <mxCell id="2Rrp769z8owgkOt1bYx3-133" value="" style="endArrow=classic;html=1;rounded=0;exitX=1;exitY=0.5;exitDx=0;exitDy=0;" parent="2Rrp769z8owgkOt1bYx3-113" source="2Rrp769z8owgkOt1bYx3-124" target="2Rrp769z8owgkOt1bYx3-130" edge="1">
          <mxGeometry relative="1" as="geometry">
            <mxPoint x="1680" y="1520" as="sourcePoint" />
            <mxPoint x="2000" y="1560" as="targetPoint" />
          </mxGeometry>
        </mxCell>
        <mxCell id="2Rrp769z8owgkOt1bYx3-134" value="" style="shape=message;html=1;outlineConnect=0;" parent="2Rrp769z8owgkOt1bYx3-133" vertex="1">
          <mxGeometry width="20" height="14" relative="1" as="geometry">
            <mxPoint x="-10" y="-7" as="offset" />
          </mxGeometry>
        </mxCell>
        <mxCell id="UtOUUQE6x2YMXYn3wsZK-192" value="No CLV - Commit" parent="0" />
        <mxCell id="UtOUUQE6x2YMXYn3wsZK-194" value="Versioned List" style="swimlane;whiteSpace=wrap;html=1;" parent="UtOUUQE6x2YMXYn3wsZK-192" vertex="1">
          <mxGeometry x="850" y="-150" width="400" height="180" as="geometry" />
        </mxCell>
        <mxCell id="UtOUUQE6x2YMXYn3wsZK-195" value="Committed" style="swimlane;whiteSpace=wrap;html=1;" parent="UtOUUQE6x2YMXYn3wsZK-194" vertex="1">
          <mxGeometry x="10" y="30" width="380" height="140" as="geometry">
            <mxRectangle x="30" y="40" width="100" height="30" as="alternateBounds" />
          </mxGeometry>
        </mxCell>
        <mxCell id="UtOUUQE6x2YMXYn3wsZK-196" value="&lt;div align=&quot;center&quot;&gt;&lt;font style=&quot;font-size: 11px;&quot;&gt;V2&lt;/font&gt;&lt;/div&gt;&lt;div align=&quot;center&quot;&gt;&lt;font style=&quot;font-size: 11px;&quot;&gt;CommitTs: 2&lt;br&gt;&lt;/font&gt;&lt;/div&gt;" style="ellipse;whiteSpace=wrap;html=1;align=center;" parent="UtOUUQE6x2YMXYn3wsZK-195" vertex="1">
          <mxGeometry x="140" y="40" width="100" height="80" as="geometry" />
        </mxCell>
        <mxCell id="UtOUUQE6x2YMXYn3wsZK-197" value="&lt;div align=&quot;center&quot;&gt;V1&lt;/div&gt;&lt;div align=&quot;center&quot;&gt;CommitTs: 1&lt;br&gt;&lt;/div&gt;" style="ellipse;whiteSpace=wrap;html=1;align=center;" parent="UtOUUQE6x2YMXYn3wsZK-195" vertex="1">
          <mxGeometry x="10" y="40" width="100" height="80" as="geometry" />
        </mxCell>
        <mxCell id="UtOUUQE6x2YMXYn3wsZK-198" value="" style="endArrow=classic;html=1;rounded=0;exitX=1;exitY=0.5;exitDx=0;exitDy=0;entryX=0;entryY=0.5;entryDx=0;entryDy=0;" parent="UtOUUQE6x2YMXYn3wsZK-195" source="UtOUUQE6x2YMXYn3wsZK-197" target="UtOUUQE6x2YMXYn3wsZK-196" edge="1">
          <mxGeometry width="50" height="50" relative="1" as="geometry">
            <mxPoint x="60" y="160" as="sourcePoint" />
            <mxPoint x="210" y="130" as="targetPoint" />
          </mxGeometry>
        </mxCell>
        <mxCell id="UtOUUQE6x2YMXYn3wsZK-201" value="" style="endArrow=classic;html=1;rounded=0;exitX=1;exitY=0.5;exitDx=0;exitDy=0;entryX=0;entryY=0.5;entryDx=0;entryDy=0;" parent="UtOUUQE6x2YMXYn3wsZK-194" source="UtOUUQE6x2YMXYn3wsZK-196" target="2Rrp769z8owgkOt1bYx3-138" edge="1">
          <mxGeometry width="50" height="50" relative="1" as="geometry">
            <mxPoint x="270" y="109.57999999999998" as="sourcePoint" />
            <mxPoint x="300.0000000000002" y="110" as="targetPoint" />
          </mxGeometry>
        </mxCell>
        <mxCell id="2Rrp769z8owgkOt1bYx3-138" value="&lt;div align=&quot;center&quot;&gt;V3&lt;/div&gt;&lt;div&gt;CommitTs: 3&lt;br&gt;&lt;/div&gt;" style="ellipse;whiteSpace=wrap;html=1;align=center;" parent="UtOUUQE6x2YMXYn3wsZK-194" vertex="1">
          <mxGeometry x="280" y="70" width="100" height="80" as="geometry" />
        </mxCell>
        <mxCell id="UtOUUQE6x2YMXYn3wsZK-203" value="Write-Write Conflict" style="swimlane;whiteSpace=wrap;html=1;" parent="UtOUUQE6x2YMXYn3wsZK-192" vertex="1">
          <mxGeometry x="990" y="40" width="120" height="120" as="geometry">
            <mxRectangle x="200" y="420" width="120" height="30" as="alternateBounds" />
          </mxGeometry>
        </mxCell>
        <mxCell id="UtOUUQE6x2YMXYn3wsZK-204" value="&lt;div&gt;Txn B&lt;br&gt;&lt;/div&gt;&lt;div&gt;StartTs: 2&lt;br&gt;&lt;/div&gt;" style="rounded=1;whiteSpace=wrap;html=1;" parent="UtOUUQE6x2YMXYn3wsZK-203" vertex="1">
          <mxGeometry x="20" y="40" width="80" height="60" as="geometry" />
        </mxCell>
        <mxCell id="UtOUUQE6x2YMXYn3wsZK-205" value="" style="rounded=1;whiteSpace=wrap;html=1;strokeWidth=1;fillWeight=2;hachureGap=8;hachureAngle=45;fillColor=#BC4242;sketch=1;strokeColor=none;fillStyle=hachure;gradientColor=none;opacity=50;rotation=0;" parent="UtOUUQE6x2YMXYn3wsZK-203" vertex="1">
          <mxGeometry x="0.8999999999999999" y="26" width="115" height="93" as="geometry" />
        </mxCell>
        <mxCell id="UtOUUQE6x2YMXYn3wsZK-214" value="No CLV - T1" parent="0" />
        <mxCell id="UtOUUQE6x2YMXYn3wsZK-223" value="Versioned List" style="swimlane;whiteSpace=wrap;html=1;" parent="UtOUUQE6x2YMXYn3wsZK-214" vertex="1">
          <mxGeometry x="850" y="200" width="420" height="180" as="geometry" />
        </mxCell>
        <mxCell id="UtOUUQE6x2YMXYn3wsZK-224" value="Committed" style="swimlane;whiteSpace=wrap;html=1;" parent="UtOUUQE6x2YMXYn3wsZK-223" vertex="1">
          <mxGeometry x="10" y="30" width="250" height="140" as="geometry">
            <mxRectangle x="30" y="40" width="100" height="30" as="alternateBounds" />
          </mxGeometry>
        </mxCell>
        <mxCell id="UtOUUQE6x2YMXYn3wsZK-225" value="&lt;div align=&quot;center&quot;&gt;&lt;font style=&quot;font-size: 11px;&quot;&gt;V2&lt;/font&gt;&lt;/div&gt;&lt;div align=&quot;center&quot;&gt;&lt;font style=&quot;font-size: 11px;&quot;&gt;CommitTs: 2&lt;br&gt;&lt;/font&gt;&lt;/div&gt;&lt;div align=&quot;center&quot;&gt;&lt;font style=&quot;font-size: 11px;&quot;&gt;Txn A (StartTs:&lt;/font&gt;&lt;/div&gt;&lt;div align=&quot;center&quot;&gt;2)&lt;/div&gt;" style="ellipse;whiteSpace=wrap;html=1;align=center;" parent="UtOUUQE6x2YMXYn3wsZK-224" vertex="1">
          <mxGeometry x="140" y="40" width="100" height="80" as="geometry" />
        </mxCell>
        <mxCell id="UtOUUQE6x2YMXYn3wsZK-226" value="&lt;div align=&quot;center&quot;&gt;V1&lt;/div&gt;&lt;div align=&quot;center&quot;&gt;CommitTs: 1&lt;br&gt;&lt;/div&gt;" style="ellipse;whiteSpace=wrap;html=1;align=center;" parent="UtOUUQE6x2YMXYn3wsZK-224" vertex="1">
          <mxGeometry x="10" y="40" width="100" height="80" as="geometry" />
        </mxCell>
        <mxCell id="UtOUUQE6x2YMXYn3wsZK-227" value="" style="endArrow=classic;html=1;rounded=0;exitX=1;exitY=0.5;exitDx=0;exitDy=0;entryX=0;entryY=0.5;entryDx=0;entryDy=0;" parent="UtOUUQE6x2YMXYn3wsZK-224" source="UtOUUQE6x2YMXYn3wsZK-226" target="UtOUUQE6x2YMXYn3wsZK-225" edge="1">
          <mxGeometry width="50" height="50" relative="1" as="geometry">
            <mxPoint x="60" y="160" as="sourcePoint" />
            <mxPoint x="210" y="130" as="targetPoint" />
          </mxGeometry>
        </mxCell>
        <mxCell id="UtOUUQE6x2YMXYn3wsZK-228" value="Uncommitted" style="swimlane;whiteSpace=wrap;html=1;" parent="UtOUUQE6x2YMXYn3wsZK-223" vertex="1">
          <mxGeometry x="280" y="30" width="130" height="140" as="geometry">
            <mxRectangle x="290" y="40" width="110" height="30" as="alternateBounds" />
          </mxGeometry>
        </mxCell>
        <mxCell id="UtOUUQE6x2YMXYn3wsZK-229" value="&lt;div align=&quot;center&quot;&gt;V3&lt;/div&gt;" style="ellipse;whiteSpace=wrap;html=1;align=center;" parent="UtOUUQE6x2YMXYn3wsZK-228" vertex="1">
          <mxGeometry x="20" y="40" width="100" height="80" as="geometry" />
        </mxCell>
        <mxCell id="UtOUUQE6x2YMXYn3wsZK-230" value="" style="endArrow=classic;html=1;rounded=0;exitX=1;exitY=0.5;exitDx=0;exitDy=0;entryX=0;entryY=0.5;entryDx=0;entryDy=0;" parent="UtOUUQE6x2YMXYn3wsZK-223" source="UtOUUQE6x2YMXYn3wsZK-225" target="UtOUUQE6x2YMXYn3wsZK-229" edge="1">
          <mxGeometry width="50" height="50" relative="1" as="geometry">
            <mxPoint x="270" y="109.57999999999998" as="sourcePoint" />
            <mxPoint x="320" y="109.57999999999998" as="targetPoint" />
          </mxGeometry>
        </mxCell>
        <object label="No CLV - T2" id="2Rrp769z8owgkOt1bYx3-73">
          <mxCell parent="0" />
        </object>
        <mxCell id="2Rrp769z8owgkOt1bYx3-104" value="Versioned List" style="swimlane;whiteSpace=wrap;html=1;" parent="2Rrp769z8owgkOt1bYx3-73" vertex="1">
          <mxGeometry x="850" y="-600" width="420" height="180" as="geometry" />
        </mxCell>
        <mxCell id="2Rrp769z8owgkOt1bYx3-105" value="Committed" style="swimlane;whiteSpace=wrap;html=1;" parent="2Rrp769z8owgkOt1bYx3-104" vertex="1">
          <mxGeometry x="10" y="30" width="250" height="140" as="geometry">
            <mxRectangle x="30" y="40" width="100" height="30" as="alternateBounds" />
          </mxGeometry>
        </mxCell>
        <mxCell id="2Rrp769z8owgkOt1bYx3-106" value="&lt;div align=&quot;center&quot;&gt;&lt;font style=&quot;font-size: 11px;&quot;&gt;V2&lt;/font&gt;&lt;/div&gt;&lt;div align=&quot;center&quot;&gt;&lt;font style=&quot;font-size: 11px;&quot;&gt;CommitTs: 2&lt;br&gt;&lt;/font&gt;&lt;/div&gt;&lt;div align=&quot;center&quot;&gt;&lt;font style=&quot;font-size: 11px;&quot;&gt;Txn A (StartTs:&lt;/font&gt;&lt;/div&gt;&lt;div align=&quot;center&quot;&gt;2)&lt;/div&gt;" style="ellipse;whiteSpace=wrap;html=1;align=center;" parent="2Rrp769z8owgkOt1bYx3-105" vertex="1">
          <mxGeometry x="140" y="40" width="100" height="80" as="geometry" />
        </mxCell>
        <mxCell id="2Rrp769z8owgkOt1bYx3-107" value="&lt;div align=&quot;center&quot;&gt;V1&lt;/div&gt;&lt;div align=&quot;center&quot;&gt;CommitTs: 1&lt;br&gt;&lt;/div&gt;" style="ellipse;whiteSpace=wrap;html=1;align=center;" parent="2Rrp769z8owgkOt1bYx3-105" vertex="1">
          <mxGeometry x="10" y="40" width="100" height="80" as="geometry" />
        </mxCell>
        <mxCell id="2Rrp769z8owgkOt1bYx3-108" value="" style="endArrow=classic;html=1;rounded=0;exitX=1;exitY=0.5;exitDx=0;exitDy=0;entryX=0;entryY=0.5;entryDx=0;entryDy=0;" parent="2Rrp769z8owgkOt1bYx3-105" source="2Rrp769z8owgkOt1bYx3-107" target="2Rrp769z8owgkOt1bYx3-106" edge="1">
          <mxGeometry width="50" height="50" relative="1" as="geometry">
            <mxPoint x="60" y="160" as="sourcePoint" />
            <mxPoint x="210" y="130" as="targetPoint" />
          </mxGeometry>
        </mxCell>
        <mxCell id="2Rrp769z8owgkOt1bYx3-109" value="Uncommitted" style="swimlane;whiteSpace=wrap;html=1;" parent="2Rrp769z8owgkOt1bYx3-104" vertex="1">
          <mxGeometry x="280" y="30" width="130" height="140" as="geometry">
            <mxRectangle x="290" y="40" width="110" height="30" as="alternateBounds" />
          </mxGeometry>
        </mxCell>
        <mxCell id="2Rrp769z8owgkOt1bYx3-110" value="&lt;div align=&quot;center&quot;&gt;V3&lt;/div&gt;" style="ellipse;whiteSpace=wrap;html=1;align=center;" parent="2Rrp769z8owgkOt1bYx3-109" vertex="1">
          <mxGeometry x="20" y="40" width="100" height="80" as="geometry" />
        </mxCell>
        <mxCell id="2Rrp769z8owgkOt1bYx3-111" value="" style="endArrow=classic;html=1;rounded=0;exitX=1;exitY=0.5;exitDx=0;exitDy=0;entryX=0;entryY=0.5;entryDx=0;entryDy=0;" parent="2Rrp769z8owgkOt1bYx3-104" source="2Rrp769z8owgkOt1bYx3-106" target="2Rrp769z8owgkOt1bYx3-110" edge="1">
          <mxGeometry width="50" height="50" relative="1" as="geometry">
            <mxPoint x="270" y="109.57999999999998" as="sourcePoint" />
            <mxPoint x="320" y="109.57999999999998" as="targetPoint" />
          </mxGeometry>
        </mxCell>
        <mxCell id="2Rrp769z8owgkOt1bYx3-112" value="" style="endArrow=classic;html=1;rounded=0;entryX=0.5;entryY=1;entryDx=0;entryDy=0;" parent="2Rrp769z8owgkOt1bYx3-73" source="2Rrp769z8owgkOt1bYx3-102" target="2Rrp769z8owgkOt1bYx3-106" edge="1">
          <mxGeometry width="50" height="50" relative="1" as="geometry">
            <mxPoint x="990" y="-250" as="sourcePoint" />
            <mxPoint x="1040" y="-300" as="targetPoint" />
          </mxGeometry>
        </mxCell>
        <mxCell id="2Rrp769z8owgkOt1bYx3-101" value="Waiters" style="swimlane;whiteSpace=wrap;html=1;" parent="2Rrp769z8owgkOt1bYx3-73" vertex="1">
          <mxGeometry x="990" y="-410" width="120" height="120" as="geometry">
            <mxRectangle x="200" y="420" width="120" height="30" as="alternateBounds" />
          </mxGeometry>
        </mxCell>
        <mxCell id="2Rrp769z8owgkOt1bYx3-102" value="&lt;div&gt;Txn B&lt;br&gt;&lt;/div&gt;&lt;div&gt;StartTs: 2&lt;br&gt;&lt;/div&gt;" style="rounded=1;whiteSpace=wrap;html=1;" parent="2Rrp769z8owgkOt1bYx3-101" vertex="1">
          <mxGeometry x="20" y="40" width="80" height="60" as="geometry" />
        </mxCell>
        <object label="No CLV - Conflict" id="2Rrp769z8owgkOt1bYx3-35">
          <mxCell parent="0" />
        </object>
        <mxCell id="2Rrp769z8owgkOt1bYx3-44" value="Write-Write" style="swimlane;whiteSpace=wrap;html=1;" parent="2Rrp769z8owgkOt1bYx3-35" vertex="1">
          <mxGeometry x="1610" y="30" width="120" height="120" as="geometry">
            <mxRectangle x="200" y="420" width="120" height="30" as="alternateBounds" />
          </mxGeometry>
        </mxCell>
        <mxCell id="2Rrp769z8owgkOt1bYx3-45" value="&lt;div&gt;Txn A&lt;br&gt;&lt;/div&gt;&lt;div&gt;StartTs: 1&lt;br&gt;&lt;/div&gt;" style="rounded=1;whiteSpace=wrap;html=1;" parent="2Rrp769z8owgkOt1bYx3-44" vertex="1">
          <mxGeometry x="20" y="40" width="80" height="60" as="geometry" />
        </mxCell>
        <mxCell id="2Rrp769z8owgkOt1bYx3-46" value="" style="rounded=1;whiteSpace=wrap;html=1;strokeWidth=1;fillWeight=2;hachureGap=8;hachureAngle=45;fillColor=#BC4242;sketch=1;strokeColor=none;fillStyle=hachure;gradientColor=none;opacity=50;rotation=0;" parent="2Rrp769z8owgkOt1bYx3-44" vertex="1">
          <mxGeometry x="0.8999999999999999" y="26" width="115" height="93" as="geometry" />
        </mxCell>
        <mxCell id="2Rrp769z8owgkOt1bYx3-47" value="Versioned List" style="swimlane;whiteSpace=wrap;html=1;" parent="2Rrp769z8owgkOt1bYx3-35" vertex="1">
          <mxGeometry x="1470" y="-160" width="270" height="180" as="geometry" />
        </mxCell>
        <mxCell id="2Rrp769z8owgkOt1bYx3-48" value="Committed" style="swimlane;whiteSpace=wrap;html=1;" parent="2Rrp769z8owgkOt1bYx3-47" vertex="1">
          <mxGeometry x="10" y="30" width="250" height="140" as="geometry">
            <mxRectangle x="30" y="40" width="100" height="30" as="alternateBounds" />
          </mxGeometry>
        </mxCell>
        <mxCell id="2Rrp769z8owgkOt1bYx3-49" value="&lt;div align=&quot;center&quot;&gt;&lt;font style=&quot;font-size: 11px;&quot;&gt;V2&lt;/font&gt;&lt;/div&gt;&lt;div align=&quot;center&quot;&gt;&lt;font style=&quot;font-size: 11px;&quot;&gt;CommitTs: 2&lt;br&gt;&lt;/font&gt;&lt;/div&gt;" style="ellipse;whiteSpace=wrap;html=1;align=center;" parent="2Rrp769z8owgkOt1bYx3-48" vertex="1">
          <mxGeometry x="140" y="40" width="100" height="80" as="geometry" />
        </mxCell>
        <mxCell id="2Rrp769z8owgkOt1bYx3-50" value="&lt;div align=&quot;center&quot;&gt;V1&lt;/div&gt;&lt;div align=&quot;center&quot;&gt;CommitTs: 1&lt;br&gt;&lt;/div&gt;" style="ellipse;whiteSpace=wrap;html=1;align=center;" parent="2Rrp769z8owgkOt1bYx3-48" vertex="1">
          <mxGeometry x="10" y="40" width="100" height="80" as="geometry" />
        </mxCell>
        <mxCell id="2Rrp769z8owgkOt1bYx3-51" value="" style="endArrow=classic;html=1;rounded=0;exitX=1;exitY=0.5;exitDx=0;exitDy=0;entryX=0;entryY=0.5;entryDx=0;entryDy=0;" parent="2Rrp769z8owgkOt1bYx3-48" source="2Rrp769z8owgkOt1bYx3-50" target="2Rrp769z8owgkOt1bYx3-49" edge="1">
          <mxGeometry width="50" height="50" relative="1" as="geometry">
            <mxPoint x="60" y="160" as="sourcePoint" />
            <mxPoint x="210" y="130" as="targetPoint" />
          </mxGeometry>
        </mxCell>
        <mxCell id="UtOUUQE6x2YMXYn3wsZK-253" value="No CLV - Abort" parent="0" />
        <mxCell id="2Rrp769z8owgkOt1bYx3-32" value="Aborted" style="swimlane;whiteSpace=wrap;html=1;" parent="UtOUUQE6x2YMXYn3wsZK-253" vertex="1">
          <mxGeometry x="1120" y="610" width="130" height="120" as="geometry">
            <mxRectangle x="290" y="40" width="110" height="30" as="alternateBounds" />
          </mxGeometry>
        </mxCell>
        <mxCell id="2Rrp769z8owgkOt1bYx3-33" value="&lt;div align=&quot;center&quot;&gt;V3&lt;/div&gt;" style="ellipse;whiteSpace=wrap;html=1;align=center;" parent="2Rrp769z8owgkOt1bYx3-32" vertex="1">
          <mxGeometry x="20" y="30" width="100" height="80" as="geometry" />
        </mxCell>
        <mxCell id="2Rrp769z8owgkOt1bYx3-34" value="" style="rounded=1;whiteSpace=wrap;html=1;strokeWidth=1;fillWeight=2;hachureGap=8;hachureAngle=45;fillColor=#BC4242;sketch=1;strokeColor=none;fillStyle=hachure;gradientColor=none;opacity=50;rotation=0;" parent="2Rrp769z8owgkOt1bYx3-32" vertex="1">
          <mxGeometry x="2" y="25.5" width="125" height="92" as="geometry" />
        </mxCell>
        <mxCell id="3eUUklbMNpPW6ebB3lrA-1" value="Versioned List" style="swimlane;whiteSpace=wrap;html=1;" vertex="1" parent="UtOUUQE6x2YMXYn3wsZK-253">
          <mxGeometry x="840" y="420" width="420" height="180" as="geometry" />
        </mxCell>
        <mxCell id="3eUUklbMNpPW6ebB3lrA-2" value="Committed" style="swimlane;whiteSpace=wrap;html=1;" vertex="1" parent="3eUUklbMNpPW6ebB3lrA-1">
          <mxGeometry x="10" y="30" width="250" height="140" as="geometry">
            <mxRectangle x="30" y="40" width="100" height="30" as="alternateBounds" />
          </mxGeometry>
        </mxCell>
        <mxCell id="3eUUklbMNpPW6ebB3lrA-3" value="&lt;div align=&quot;center&quot;&gt;&lt;font style=&quot;font-size: 11px;&quot;&gt;V2&lt;/font&gt;&lt;/div&gt;&lt;div align=&quot;center&quot;&gt;&lt;font style=&quot;font-size: 11px;&quot;&gt;CommitTs: 2&lt;br&gt;&lt;/font&gt;&lt;/div&gt;&lt;div align=&quot;center&quot;&gt;&lt;font style=&quot;font-size: 11px;&quot;&gt;Txn B (StartTs:&lt;/font&gt;&lt;/div&gt;&lt;div align=&quot;center&quot;&gt;2)&lt;/div&gt;" style="ellipse;whiteSpace=wrap;html=1;align=center;" vertex="1" parent="3eUUklbMNpPW6ebB3lrA-2">
          <mxGeometry x="140" y="40" width="100" height="80" as="geometry" />
        </mxCell>
        <mxCell id="3eUUklbMNpPW6ebB3lrA-4" value="&lt;div align=&quot;center&quot;&gt;V1&lt;/div&gt;&lt;div align=&quot;center&quot;&gt;CommitTs: 1&lt;br&gt;&lt;/div&gt;" style="ellipse;whiteSpace=wrap;html=1;align=center;" vertex="1" parent="3eUUklbMNpPW6ebB3lrA-2">
          <mxGeometry x="10" y="40" width="100" height="80" as="geometry" />
        </mxCell>
        <mxCell id="3eUUklbMNpPW6ebB3lrA-5" value="" style="endArrow=classic;html=1;rounded=0;exitX=1;exitY=0.5;exitDx=0;exitDy=0;entryX=0;entryY=0.5;entryDx=0;entryDy=0;" edge="1" parent="3eUUklbMNpPW6ebB3lrA-2" source="3eUUklbMNpPW6ebB3lrA-4" target="3eUUklbMNpPW6ebB3lrA-3">
          <mxGeometry width="50" height="50" relative="1" as="geometry">
            <mxPoint x="60" y="160" as="sourcePoint" />
            <mxPoint x="210" y="130" as="targetPoint" />
          </mxGeometry>
        </mxCell>
        <mxCell id="3eUUklbMNpPW6ebB3lrA-6" value="Uncommitted" style="swimlane;whiteSpace=wrap;html=1;" vertex="1" parent="3eUUklbMNpPW6ebB3lrA-1">
          <mxGeometry x="280" y="30" width="130" height="140" as="geometry">
            <mxRectangle x="290" y="40" width="110" height="30" as="alternateBounds" />
          </mxGeometry>
        </mxCell>
        <mxCell id="3eUUklbMNpPW6ebB3lrA-7" value="&lt;div align=&quot;center&quot;&gt;V3&lt;/div&gt;" style="ellipse;whiteSpace=wrap;html=1;align=center;" vertex="1" parent="3eUUklbMNpPW6ebB3lrA-6">
          <mxGeometry x="20" y="40" width="100" height="80" as="geometry" />
        </mxCell>
        <mxCell id="3eUUklbMNpPW6ebB3lrA-8" value="" style="endArrow=classic;html=1;rounded=0;exitX=1;exitY=0.5;exitDx=0;exitDy=0;entryX=0;entryY=0.5;entryDx=0;entryDy=0;" edge="1" parent="3eUUklbMNpPW6ebB3lrA-1" source="3eUUklbMNpPW6ebB3lrA-3" target="3eUUklbMNpPW6ebB3lrA-7">
          <mxGeometry width="50" height="50" relative="1" as="geometry">
            <mxPoint x="270" y="109.57999999999998" as="sourcePoint" />
            <mxPoint x="320" y="109.57999999999998" as="targetPoint" />
          </mxGeometry>
        </mxCell>
        <mxCell id="3eUUklbMNpPW6ebB3lrA-9" value="mv lock list" parent="0" />
        <mxCell id="3eUUklbMNpPW6ebB3lrA-10" value="Exclusive Lock List" style="swimlane;whiteSpace=wrap;html=1;" vertex="1" parent="3eUUklbMNpPW6ebB3lrA-9">
          <mxGeometry x="1510" y="-640" width="470" height="150" as="geometry" />
        </mxCell>
        <mxCell id="3eUUklbMNpPW6ebB3lrA-31" style="edgeStyle=orthogonalEdgeStyle;rounded=0;orthogonalLoop=1;jettySize=auto;html=1;exitX=1;exitY=0.5;exitDx=0;exitDy=0;entryX=0;entryY=0.5;entryDx=0;entryDy=0;" edge="1" parent="3eUUklbMNpPW6ebB3lrA-10" source="3eUUklbMNpPW6ebB3lrA-17" target="3eUUklbMNpPW6ebB3lrA-18">
          <mxGeometry relative="1" as="geometry" />
        </mxCell>
        <mxCell id="3eUUklbMNpPW6ebB3lrA-17" value="&lt;div&gt;Txn A&lt;/div&gt;&lt;div&gt;ViolationTS:&lt;/div&gt;&lt;div&gt;1&lt;br&gt;&lt;/div&gt;" style="rhombus;whiteSpace=wrap;html=1;" vertex="1" parent="3eUUklbMNpPW6ebB3lrA-10">
          <mxGeometry x="10" y="40" width="90" height="90" as="geometry" />
        </mxCell>
        <mxCell id="3eUUklbMNpPW6ebB3lrA-32" style="edgeStyle=orthogonalEdgeStyle;rounded=0;orthogonalLoop=1;jettySize=auto;html=1;exitX=1;exitY=0.5;exitDx=0;exitDy=0;entryX=0;entryY=0.5;entryDx=0;entryDy=0;" edge="1" parent="3eUUklbMNpPW6ebB3lrA-10" source="3eUUklbMNpPW6ebB3lrA-18" target="3eUUklbMNpPW6ebB3lrA-19">
          <mxGeometry relative="1" as="geometry" />
        </mxCell>
        <mxCell id="3eUUklbMNpPW6ebB3lrA-18" value="&lt;div&gt;Txn B&lt;br&gt;&lt;/div&gt;&lt;div&gt;ViolationTS:&lt;/div&gt;&lt;div&gt;2&lt;br&gt;&lt;/div&gt;" style="rhombus;whiteSpace=wrap;html=1;" vertex="1" parent="3eUUklbMNpPW6ebB3lrA-10">
          <mxGeometry x="130" y="40" width="90" height="90" as="geometry" />
        </mxCell>
        <mxCell id="3eUUklbMNpPW6ebB3lrA-33" style="edgeStyle=orthogonalEdgeStyle;rounded=0;orthogonalLoop=1;jettySize=auto;html=1;exitX=1;exitY=0.5;exitDx=0;exitDy=0;entryX=0;entryY=0.5;entryDx=0;entryDy=0;" edge="1" parent="3eUUklbMNpPW6ebB3lrA-10" source="3eUUklbMNpPW6ebB3lrA-19" target="3eUUklbMNpPW6ebB3lrA-20">
          <mxGeometry relative="1" as="geometry" />
        </mxCell>
        <mxCell id="3eUUklbMNpPW6ebB3lrA-19" value="&lt;div&gt;Txn C&lt;/div&gt;&lt;div&gt;ViolationTs:&lt;/div&gt;&lt;div&gt;3&lt;br&gt;&lt;/div&gt;" style="rhombus;whiteSpace=wrap;html=1;" vertex="1" parent="3eUUklbMNpPW6ebB3lrA-10">
          <mxGeometry x="250" y="40" width="90" height="90" as="geometry" />
        </mxCell>
        <mxCell id="3eUUklbMNpPW6ebB3lrA-20" value="&lt;div&gt;Txn D&lt;br&gt;&lt;/div&gt;" style="rhombus;whiteSpace=wrap;html=1;" vertex="1" parent="3eUUklbMNpPW6ebB3lrA-10">
          <mxGeometry x="370" y="40" width="90" height="90" as="geometry" />
        </mxCell>
        <mxCell id="3eUUklbMNpPW6ebB3lrA-29" style="edgeStyle=orthogonalEdgeStyle;rounded=0;orthogonalLoop=1;jettySize=auto;html=1;exitX=0.5;exitY=0;exitDx=0;exitDy=0;entryX=0.5;entryY=1;entryDx=0;entryDy=0;" edge="1" parent="3eUUklbMNpPW6ebB3lrA-9" source="3eUUklbMNpPW6ebB3lrA-28" target="3eUUklbMNpPW6ebB3lrA-19">
          <mxGeometry relative="1" as="geometry" />
        </mxCell>
        <mxCell id="3eUUklbMNpPW6ebB3lrA-26" style="edgeStyle=orthogonalEdgeStyle;rounded=0;orthogonalLoop=1;jettySize=auto;html=1;exitX=0.5;exitY=0;exitDx=0;exitDy=0;entryX=0.5;entryY=1;entryDx=0;entryDy=0;" edge="1" parent="3eUUklbMNpPW6ebB3lrA-9" source="3eUUklbMNpPW6ebB3lrA-25" target="3eUUklbMNpPW6ebB3lrA-17">
          <mxGeometry relative="1" as="geometry" />
        </mxCell>
        <mxCell id="3eUUklbMNpPW6ebB3lrA-23" value="Waiters" style="swimlane;whiteSpace=wrap;html=1;" vertex="1" parent="3eUUklbMNpPW6ebB3lrA-9">
          <mxGeometry x="1510" y="-480" width="110" height="130" as="geometry">
            <mxRectangle x="200" y="420" width="120" height="30" as="alternateBounds" />
          </mxGeometry>
        </mxCell>
        <mxCell id="3eUUklbMNpPW6ebB3lrA-25" value="&lt;div&gt;Txn H&lt;br&gt;&lt;/div&gt;&lt;div&gt;StartTs:&lt;/div&gt;&lt;div&gt;1&lt;br&gt;&lt;/div&gt;" style="rhombus;whiteSpace=wrap;html=1;" vertex="1" parent="3eUUklbMNpPW6ebB3lrA-23">
          <mxGeometry x="10" y="30" width="90" height="90" as="geometry" />
        </mxCell>
        <mxCell id="3eUUklbMNpPW6ebB3lrA-27" value="Waiters" style="swimlane;whiteSpace=wrap;html=1;" vertex="1" parent="3eUUklbMNpPW6ebB3lrA-9">
          <mxGeometry x="1750" y="-480" width="110" height="130" as="geometry">
            <mxRectangle x="200" y="420" width="120" height="30" as="alternateBounds" />
          </mxGeometry>
        </mxCell>
        <mxCell id="3eUUklbMNpPW6ebB3lrA-28" value="&lt;div&gt;Txn J&lt;br&gt;&lt;/div&gt;&lt;div&gt;StartTs:&lt;/div&gt;&lt;div&gt;3&lt;br&gt;&lt;/div&gt;" style="rhombus;whiteSpace=wrap;html=1;" vertex="1" parent="3eUUklbMNpPW6ebB3lrA-27">
          <mxGeometry x="10" y="30" width="90" height="90" as="geometry" />
        </mxCell>
      </root>
    </mxGraphModel>
  </diagram>
</mxfile>
